<svg width="40" height="40" viewBox="0 0 40 40" fill="none" xmlns="http://www.w3.org/2000/svg">
<path d="M6.35535 20C6.35535 23.6188 7.79289 27.0893 10.3517 29.6481C12.9106 32.207 16.3811 33.6445 19.9999 33.6445C23.6186 33.6445 27.0892 32.207 29.648 29.6481C32.2069 27.0893 33.6444 23.6188 33.6444 20C33.6444 16.3812 32.2069 12.9107 29.648 10.3519C27.0892 7.79301 23.6186 6.35547 19.9999 6.35547C16.3811 6.35547 12.9106 7.79301 10.3517 10.3519C7.79289 12.9107 6.35535 16.3812 6.35535 20Z" fill="#FF7517"/>
<path d="M33.6014 20.918C33.5702 20.9141 33.5389 20.9023 33.5077 20.9023C32.7382 20.9531 31.9882 21.0703 31.2577 21.2383C31.0155 20.2969 30.7069 19.3789 30.3319 18.4961C31.2889 17.793 32.2225 17.0508 33.121 16.2695C32.9921 15.8203 32.8436 15.3789 32.6718 14.9492C32.5936 14.9766 32.5233 15.0156 32.4569 15.0742C31.5897 15.8437 30.6913 16.5703 29.7655 17.2578C29.2889 16.3242 28.7343 15.4375 28.1171 14.5937C29.035 13.5937 29.8163 12.4531 30.4257 11.1992C30.1288 10.8477 29.8124 10.5117 29.4803 10.1914C29.4218 10.2461 29.371 10.3125 29.3358 10.3867C28.8007 11.5469 28.0975 12.6016 27.2733 13.5312C24.4843 10.2461 20.6249 7.85156 16.1678 6.91016C15.371 7.14453 14.6093 7.44922 13.8788 7.81641C13.9647 7.87891 14.0624 7.92578 14.1796 7.9375C19.0975 8.51172 23.3632 10.957 26.3124 14.4805C23.9686 16.625 20.8866 17.8984 17.6132 17.8984C13.9921 17.8984 10.6288 16.4258 8.14832 13.7539C8.08972 13.6914 8.01941 13.6445 7.94519 13.6094C7.73035 14.0156 7.53503 14.4336 7.36316 14.8594C10.0468 17.6406 13.7616 19.2422 17.6093 19.2422C21.1874 19.2422 24.5663 17.875 27.1444 15.5547C27.7069 16.3359 28.2147 17.1562 28.6444 18.0234C22.4764 22.2969 15.203 24.8594 7.69128 25.2734C7.60144 25.2773 7.5155 25.3008 7.43738 25.3398C7.62097 25.7695 7.8241 26.1836 8.04675 26.5859C15.621 26.1172 22.953 23.543 29.1991 19.2656C29.5077 20.0195 29.7538 20.8008 29.9569 21.5977C24.7655 23.3047 20.8944 27.8867 20.2655 33.5273C20.2616 33.5664 20.2733 33.5977 20.2733 33.6367C20.7303 33.6289 21.1796 33.5977 21.621 33.543C22.2303 28.543 25.6483 24.4766 30.2421 22.9141C30.4178 23.9258 30.5233 24.957 30.5233 26.0117C30.5233 27.0078 30.5077 28.207 30.4608 28.75C30.9882 28.1211 31.453 27.4375 31.8632 26.7187C31.8671 26.4375 31.8671 26.1875 31.8671 26.0078C31.8671 24.8281 31.7538 23.6719 31.5468 22.5469C32.1639 22.4062 32.7928 22.3086 33.4374 22.2578C33.5155 21.8203 33.5702 21.375 33.6014 20.918Z" fill="#1C1C1C"/>
</svg>
