<svg width="40" height="40" viewBox="0 0 40 40" fill="none" xmlns="http://www.w3.org/2000/svg">
<path d="M10.446 25.7742C10.446 26.0898 10.3524 26.3982 10.1771 26.6606C10.0018 26.923 9.75255 27.1274 9.461 27.2482C9.16945 27.3689 8.84865 27.4004 8.53917 27.3388C8.22969 27.2772 7.94543 27.1252 7.72235 26.902C7.49927 26.6788 7.3474 26.3945 7.28593 26.085C7.22446 25.7754 7.25617 25.4547 7.37703 25.1632C7.4979 24.8717 7.70249 24.6226 7.96494 24.4474C8.22739 24.2722 8.53591 24.1787 8.85147 24.1789C9.27443 24.1791 9.68001 24.3473 9.97902 24.6464C10.278 24.9456 10.446 25.3512 10.446 25.7742ZM30.703 25.4109C30.703 25.7265 30.6094 26.0349 30.4341 26.2973C30.2588 26.5597 30.0096 26.7642 29.718 26.8849C29.4265 27.0056 29.1057 27.0371 28.7962 26.9755C28.4867 26.9139 28.2025 26.7619 27.9794 26.5387C27.7563 26.3155 27.6044 26.0312 27.543 25.7217C27.4815 25.4122 27.5132 25.0914 27.6341 24.7999C27.7549 24.5084 27.9595 24.2593 28.222 24.0841C28.4844 23.9089 28.7929 23.8155 29.1085 23.8156C29.318 23.8156 29.5254 23.8569 29.7189 23.9371C29.9124 24.0172 30.0882 24.1348 30.2363 24.2829C30.3844 24.4311 30.5018 24.6069 30.5819 24.8005C30.662 24.994 30.7031 25.2015 30.703 25.4109ZM23.6249 10.9445H21.0858C20.8579 10.9445 20.6393 10.854 20.4782 10.6928C20.317 10.5317 20.2265 10.3131 20.2265 10.0851C20.2265 9.85722 20.317 9.63864 20.4782 9.47747C20.6393 9.31631 20.8579 9.22577 21.0858 9.22577H23.6249C23.8528 9.22577 24.0714 9.31631 24.2326 9.47747C24.3937 9.63864 24.4843 9.85722 24.4843 10.0851C24.4843 10.3131 24.3937 10.5317 24.2326 10.6928C24.0714 10.854 23.8528 10.9445 23.6249 10.9445ZM15.4937 13.8101L11.421 14.3672C10.5163 14.3672 9.6624 13.8633 9.10693 13.0016C8.9335 12.7344 9.09209 12.3437 9.3749 12.3437H14.2772C14.9491 12.3437 15.4944 13.0016 15.4944 13.8125" fill="#DCD3D4"/>
<path d="M8.53271 32.3024C4.72021 32.3024 1.61865 29.211 1.61865 25.411C1.61865 21.611 4.72021 18.5196 8.53271 18.5196C12.3452 18.5196 15.446 21.611 15.446 25.411C15.446 29.211 12.3444 32.3024 8.53271 32.3024ZM8.60303 19.7696C5.44287 19.7696 2.87256 22.3008 2.87256 25.411C2.87256 28.5211 5.44287 31.0524 8.60303 31.0524C11.7632 31.0524 14.3327 28.5219 14.3327 25.411C14.3327 22.3 11.7624 19.7696 8.60303 19.7696ZM28.803 32.4297C27.3739 32.4297 25.9769 32.0059 24.7886 31.212C23.6003 30.418 22.6742 29.2895 22.1273 27.9691C21.5804 26.6488 21.4373 25.1959 21.7161 23.7943C21.9949 22.3926 22.6831 21.1051 23.6936 20.0945C24.7042 19.084 25.9917 18.3958 27.3933 18.117C28.795 17.8382 30.2479 17.9813 31.5682 18.5282C32.8886 19.0751 34.0171 20.0012 34.811 21.1895C35.605 22.3778 36.0288 23.7748 36.0288 25.2039C36.0267 27.1197 35.2648 28.9564 33.9101 30.311C32.5555 31.6657 30.7188 32.4276 28.803 32.4297ZM28.803 19.2266C27.6211 19.2266 26.4658 19.5771 25.4831 20.2337C24.5003 20.8903 23.7344 21.8236 23.2821 22.9155C22.8298 24.0075 22.7115 25.209 22.9421 26.3682C23.1726 27.5274 23.7418 28.5922 24.5775 29.4279C25.4132 30.2636 26.478 30.8328 27.6372 31.0633C28.7964 31.2939 29.9979 31.1756 31.0899 30.7233C32.1818 30.271 33.1151 29.505 33.7717 28.5223C34.4283 27.5396 34.7788 26.3843 34.7788 25.2024C34.7772 23.618 34.147 22.099 33.0267 20.9787C31.9064 19.8584 30.3874 19.2282 28.803 19.2266Z" fill="#DDD3D4"/>
<path d="M10.4459 25.6664C10.4458 25.8578 10.3889 26.0449 10.2824 26.2039C10.176 26.363 10.0247 26.487 9.84786 26.5601C9.67098 26.6333 9.47637 26.6523 9.28866 26.6149C9.10094 26.5774 8.92854 26.4852 8.79325 26.3498C8.65795 26.2144 8.56584 26.0419 8.52855 25.8542C8.49127 25.6664 8.51048 25.4718 8.58377 25.295C8.65705 25.1182 8.78112 24.967 8.94029 24.8607C9.09945 24.7544 9.28657 24.6976 9.47798 24.6976C9.60516 24.6976 9.73109 24.7227 9.84858 24.7714C9.96608 24.8201 10.0728 24.8915 10.1627 24.9814C10.2526 25.0714 10.3239 25.1782 10.3725 25.2957C10.4211 25.4132 10.4461 25.5392 10.4459 25.6664Z" fill="#E08476"/>
<path d="M25.703 12.9687C25.7031 13.1461 25.6507 13.3196 25.5522 13.4672C25.4538 13.6148 25.3137 13.7299 25.1499 13.7979C24.986 13.8659 24.8057 13.8838 24.6316 13.8492C24.4576 13.8147 24.2977 13.7294 24.1722 13.604C24.0467 13.4786 23.9612 13.3188 23.9265 13.1448C23.8919 12.9708 23.9096 12.7904 23.9774 12.6265C24.0453 12.4625 24.1603 12.3224 24.3078 12.2238C24.4553 12.1253 24.6287 12.0726 24.8061 12.0726C25.0438 12.0726 25.2719 12.167 25.44 12.335C25.6082 12.5031 25.7028 12.731 25.703 12.9687Z" fill="#E23C3C"/>
<path d="M24.553 9.67969H22.0139C21.786 9.67969 21.5674 9.58915 21.4062 9.42798C21.2451 9.26682 21.1545 9.04823 21.1545 8.82031C21.1545 8.59239 21.2451 8.37381 21.4062 8.21264C21.5674 8.05148 21.786 7.96094 22.0139 7.96094H24.553C24.7809 7.96094 24.9995 8.05148 25.1606 8.21264C25.3218 8.37381 25.4124 8.59239 25.4124 8.82031C25.4124 9.04823 25.3218 9.26682 25.1606 9.42798C24.9995 9.58915 24.7809 9.67969 24.553 9.67969Z" fill="#E08476"/>
<path d="M16.3882 12.7977L12.3155 13.3539C11.4101 13.3539 10.5561 12.85 10.0007 11.9883C9.82724 11.7195 9.98584 11.3281 10.2679 11.3281H15.1702C15.8429 11.3281 16.3882 11.9859 16.3882 12.7977Z" fill="#E23C3C"/>
<path d="M29.7342 18.8328C28.444 18.8328 27.1828 19.2154 26.11 19.9322C25.0372 20.649 24.2011 21.6678 23.7074 22.8599C23.2136 24.0519 23.0844 25.3635 23.3362 26.6289C23.5879 27.8943 24.2092 29.0567 25.1215 29.969C26.0338 30.8813 27.1962 31.5026 28.4616 31.7544C29.727 32.0061 31.0387 31.8769 32.2307 31.3831C33.4227 30.8894 34.4415 30.0533 35.1583 28.9805C35.8751 27.9077 36.2577 26.6465 36.2577 25.3563C36.2577 24.4996 36.0889 23.6513 35.7611 22.8599C35.4333 22.0684 34.9528 21.3493 34.347 20.7435C33.7413 20.1377 33.0221 19.6572 32.2307 19.3294C31.4392 19.0016 30.5909 18.8328 29.7342 18.8328ZM29.7342 30.418C28.7438 30.418 27.7755 30.1243 26.952 29.574C26.1284 29.0237 25.4866 28.2415 25.1076 27.3264C24.7285 26.4113 24.6294 25.4043 24.8227 24.4329C25.016 23.4615 25.493 22.5692 26.1935 21.8688C26.8939 21.1685 27.7863 20.6916 28.7577 20.4985C29.7292 20.3053 30.7361 20.4046 31.6512 20.7838C32.5662 21.1629 33.3483 21.8049 33.8985 22.6285C34.4486 23.4522 34.7422 24.4205 34.7421 25.411C34.7418 26.739 34.2141 28.0125 33.275 28.9515C32.3359 29.8905 31.0623 30.418 29.7342 30.418ZM9.56627 19.3789C8.34788 19.3788 7.1568 19.7399 6.14366 20.4167C5.13053 21.0935 4.34084 22.0555 3.87448 23.1811C3.40811 24.3068 3.286 25.5454 3.52361 26.7404C3.76121 27.9354 4.34785 29.0331 5.20933 29.8947C6.07081 30.7563 7.16844 31.3431 8.36342 31.5808C9.55839 31.8186 10.797 31.6966 11.9227 31.2304C13.0484 30.7642 14.0105 29.9746 14.6874 28.9616C15.3643 27.9485 15.7256 26.7575 15.7256 25.5391C15.7258 24.7301 15.5665 23.9291 15.257 23.1817C14.9475 22.4344 14.4938 21.7553 13.9219 21.1832C13.3499 20.6112 12.6709 20.1574 11.9235 19.8478C11.1762 19.5383 10.3752 19.3789 9.56627 19.3789ZM9.56627 30.3164C8.63114 30.316 7.71714 30.0382 6.93986 29.5183C6.16259 28.9984 5.55694 28.2596 5.1995 27.3955C4.84207 26.5314 4.74891 25.5807 4.9318 24.6636C5.11469 23.7465 5.56542 22.9043 6.22699 22.2433C6.88856 21.5824 7.73125 21.1325 8.64851 20.9506C9.56576 20.7686 10.5164 20.8627 11.3802 21.221C12.2439 21.5793 12.9821 22.1856 13.5012 22.9634C14.0204 23.7412 14.2972 24.6555 14.2967 25.5906C14.2965 26.8445 13.7983 28.0469 12.9116 28.9334C12.025 29.8199 10.8225 30.318 9.56862 30.318" fill="#F3B5AF"/>
<path d="M30.703 25.3563C30.703 25.5477 30.6463 25.7349 30.5399 25.894C30.4335 26.0532 30.2824 26.1773 30.1055 26.2506C29.9286 26.3238 29.734 26.343 29.5462 26.3056C29.3585 26.2683 29.186 26.1761 29.0506 26.0407C28.9152 25.9054 28.823 25.7329 28.7857 25.5451C28.7483 25.3573 28.7675 25.1627 28.8408 24.9858C28.914 24.809 29.0381 24.6578 29.1973 24.5514C29.3565 24.4451 29.5436 24.3883 29.7351 24.3883C29.9917 24.3885 30.2378 24.4906 30.4193 24.672C30.6008 24.8535 30.7028 25.0996 30.703 25.3563ZM18.9843 26.6344C18.9843 26.8258 18.9275 27.013 18.8211 27.1722C18.7148 27.3314 18.5636 27.4554 18.3867 27.5287C18.2099 27.6019 18.0152 27.6211 17.8275 27.5838C17.6397 27.5464 17.4672 27.4542 17.3319 27.3189C17.1965 27.1835 17.1043 27.011 17.0669 26.8232C17.0296 26.6355 17.0488 26.4408 17.122 26.264C17.1953 26.0871 17.3194 25.9359 17.4785 25.8296C17.6377 25.7232 17.8249 25.6664 18.0163 25.6664C18.273 25.6664 18.5192 25.7684 18.7008 25.9499C18.8823 26.1315 18.9843 26.3777 18.9843 26.6344Z" fill="#E08476"/>
<path d="M36.7265 25.4109C36.7261 24.3182 36.4697 23.2407 35.9778 22.2649C35.4859 21.2891 34.7722 20.4421 33.894 19.7919C33.0157 19.1416 31.9973 18.7062 30.9204 18.5205C29.8436 18.3349 28.7382 18.4041 27.6929 18.7226L25.7812 13.8328C25.932 13.6792 26.0442 13.492 26.1086 13.2866C26.173 13.0813 26.1878 12.8635 26.1517 12.6513C26.1157 12.4391 26.0298 12.2385 25.9011 12.0659C25.7725 11.8933 25.6047 11.7537 25.4116 11.6586C25.4964 11.5756 25.6102 11.5291 25.7288 11.5289H27.546C27.7558 11.5336 27.9645 11.4963 28.1597 11.4192C28.3549 11.3421 28.5328 11.2268 28.6829 11.0801C28.8329 10.9333 28.9521 10.7581 29.0335 10.5646C29.1149 10.3712 29.1569 10.1634 29.1569 9.9535C29.1569 9.74362 29.1149 9.53584 29.0335 9.34238C28.9521 9.14892 28.8329 8.97367 28.6829 8.82692C28.5328 8.68017 28.3549 8.56488 28.1597 8.4878C27.9645 8.41073 27.7558 8.37344 27.546 8.37811H25.7944C25.6992 8.12576 25.5295 7.90838 25.3077 7.75486C25.086 7.60135 24.8227 7.51899 24.553 7.51874H22.014C21.6617 7.51874 21.3239 7.65867 21.0748 7.90774C20.8258 8.15681 20.6858 8.49462 20.6858 8.84686C20.6858 9.1991 20.8258 9.53692 21.0748 9.78599C21.3239 10.0351 21.6617 10.175 22.014 10.175H24.553C24.8227 10.1747 25.086 10.0924 25.3077 9.93886C25.5295 9.78535 25.6992 9.56796 25.7944 9.31561H27.5476C27.6332 9.31261 27.7186 9.3269 27.7986 9.3576C27.8786 9.38831 27.9516 9.43481 28.0133 9.49434C28.0749 9.55387 28.1239 9.62521 28.1574 9.7041C28.1909 9.78298 28.2082 9.8678 28.2082 9.9535C28.2082 10.0392 28.1909 10.124 28.1574 10.2029C28.1239 10.2818 28.0749 10.3531 28.0133 10.4127C27.9516 10.4722 27.8786 10.5187 27.7986 10.5494C27.7186 10.5801 27.6332 10.5944 27.5476 10.5914H25.7304C25.4328 10.5925 25.1433 10.6888 24.9044 10.8662C24.6654 11.0436 24.4894 11.2928 24.4022 11.5773C24.0904 11.6744 23.8236 11.8802 23.6506 12.1572C23.4775 12.4343 23.4095 12.7642 23.4589 13.0871C23.5084 13.41 23.672 13.7044 23.92 13.9169C24.1681 14.1295 24.4842 14.246 24.8108 14.2453C24.853 14.2453 24.8952 14.2453 24.9374 14.2383L25.614 15.9711H15.0437L14.253 13.5492L16.789 13.2031V12.7945C16.789 11.7258 16.0327 10.857 15.1022 10.857H10.2007C10.0569 10.8581 9.91622 10.8985 9.7938 10.9738C9.67137 11.0491 9.57189 11.1565 9.50615 11.2844C9.42667 11.4322 9.38783 11.5984 9.39359 11.7661C9.39936 11.9339 9.44952 12.0971 9.53896 12.2391C10.1772 13.2289 11.1897 13.8195 12.2476 13.8195H12.2796L13.3085 13.6789L14.2296 16.4914L12.3976 19.5711C10.8111 18.7653 8.97028 18.6203 7.27722 19.1675C5.58417 19.7148 4.17654 20.91 3.36191 22.4918C2.54728 24.0737 2.39188 25.9137 2.92965 27.6098C3.46742 29.3059 4.65465 30.7202 6.23193 31.5437H4.93506V32.4812H16.8968V31.5437H12.7241C13.8757 30.9068 14.8171 29.9486 15.4335 28.7859L17.2382 29.2969C17.6549 29.4168 18.0943 29.4347 18.5194 29.3492L19.2741 30.7859L18.4147 31.2961L18.8921 32.1023L21.4702 30.5789L20.9929 29.7719L20.0882 30.3078L19.4038 29.0047C19.727 28.8076 20.0053 28.5449 20.2207 28.2336C20.436 27.9223 20.5837 27.5692 20.6542 27.1973C20.7246 26.8253 20.7163 26.4428 20.6297 26.0742C20.5431 25.7057 20.3802 25.3594 20.1515 25.0578L26.5077 18.2508L26.8202 19.0578C25.6458 19.5968 24.6437 20.4508 23.9253 21.5249C23.2069 22.599 22.8003 23.8512 22.7506 25.1424C22.7009 26.4337 23.0101 27.7135 23.6438 28.8396C24.2775 29.9657 25.211 30.8942 26.3405 31.5219H21.2257V32.4594H35.0999V31.5219H33.1312C34.22 30.9157 35.1272 30.0297 35.759 28.9555C36.3908 27.8813 36.7242 26.6579 36.7249 25.4117M24.5515 9.23983H22.0124C21.9088 9.23983 21.8094 9.19868 21.7362 9.12542C21.6629 9.05216 21.6218 8.95281 21.6218 8.84921C21.6218 8.74561 21.6629 8.64625 21.7362 8.57299C21.8094 8.49974 21.9088 8.45858 22.0124 8.45858H24.5515C24.6551 8.45858 24.7544 8.49974 24.8277 8.57299C24.9009 8.64625 24.9421 8.74561 24.9421 8.84921C24.9421 8.95281 24.9009 9.05216 24.8277 9.12542C24.7544 9.19868 24.6551 9.23983 24.5515 9.23983ZM24.8062 13.3101C24.7214 13.3103 24.6386 13.2853 24.5681 13.2384C24.4976 13.1914 24.4426 13.1246 24.4101 13.0464C24.3775 12.9682 24.3689 12.8821 24.3854 12.799C24.4018 12.7159 24.4425 12.6395 24.5024 12.5796C24.5622 12.5196 24.6385 12.4788 24.7216 12.4622C24.8046 12.4456 24.8908 12.454 24.969 12.4864C25.0473 12.5188 25.1142 12.5737 25.1613 12.6441C25.2084 12.7145 25.2335 12.7973 25.2335 12.882C25.2333 12.9954 25.1882 13.104 25.1082 13.1842C25.0281 13.2645 24.9195 13.3097 24.8062 13.3101ZM12.2155 12.8875C11.4999 12.8766 10.8319 12.4828 10.371 11.8H15.1007C15.4015 11.8 15.6671 12.05 15.7851 12.4L12.2155 12.8875ZM12.7343 20.8492C13.8594 21.616 14.6799 22.7531 15.053 24.0625L10.7522 24.1773L12.7343 20.8492ZM9.48115 31.443C8.61257 31.4454 7.75454 31.2526 6.97047 30.8788C6.1864 30.5051 5.49632 29.96 4.95123 29.2837C4.40613 28.6075 4.01995 27.8174 3.82122 26.9718C3.62249 26.1263 3.61628 25.2469 3.80306 24.3986C3.98984 23.5503 4.36483 22.7549 4.90032 22.071C5.43582 21.3871 6.11813 20.8323 6.89685 20.4475C7.67557 20.0628 8.53079 19.8579 9.39932 19.848C10.2679 19.8382 11.1275 20.0236 11.9147 20.3906L9.64443 24.2078L9.46553 24.2125C9.09075 24.2126 8.73089 24.3594 8.46288 24.6214C8.19487 24.8833 8.03997 25.2398 8.0313 25.6144C8.02262 25.9891 8.16086 26.3523 8.41646 26.6264C8.67206 26.9005 9.02475 27.0638 9.39912 27.0812L14.5069 28.5266C13.9999 29.4128 13.2678 30.1494 12.3848 30.6621C11.5018 31.1747 10.4991 31.4452 9.47803 31.4461M9.97725 25.6484C9.97725 25.7472 9.94797 25.8437 9.89311 25.9258C9.83826 26.0079 9.76029 26.0719 9.66907 26.1096C9.57785 26.1474 9.47747 26.1573 9.38063 26.1381C9.2838 26.1188 9.19484 26.0712 9.12503 26.0014C9.05521 25.9316 9.00766 25.8427 8.9884 25.7458C8.96914 25.649 8.97902 25.5486 9.01681 25.4574C9.05459 25.3662 9.11858 25.2882 9.20068 25.2333C9.28277 25.1785 9.37929 25.1492 9.47803 25.1492C9.61037 25.1494 9.73722 25.2021 9.8308 25.2957C9.92438 25.3892 9.97704 25.5161 9.97725 25.6484ZM14.9124 27.6672L10.6601 26.4641C10.6982 26.4078 10.7327 26.349 10.7632 26.2883L15.1562 26.8234C15.0969 27.1094 15.016 27.3904 14.914 27.6641M15.271 25.8922L10.8874 25.3555C10.8684 25.2719 10.8422 25.1901 10.8093 25.1109L15.2343 24.993C15.2593 25.2095 15.2721 25.4273 15.2726 25.6453C15.2726 25.7281 15.2726 25.8101 15.2663 25.8922M13.2108 20.043L14.6171 17.6797L16.6905 24.0164L16.0163 24.0344C15.6111 22.4008 14.6107 20.9774 13.2108 20.043ZM17.9851 28.4641C17.5249 28.4614 17.0838 28.2799 16.755 27.9579C16.4262 27.636 16.2355 27.1987 16.2232 26.7387C16.2109 26.2787 16.378 25.8319 16.6892 25.4929C17.0003 25.1538 17.4311 24.949 17.8905 24.9219H17.9913C18.4549 24.9316 18.8962 25.1226 19.2206 25.4539C19.5451 25.7852 19.7268 26.2304 19.7268 26.6941C19.7268 27.1578 19.5451 27.6031 19.2206 27.9344C18.8962 28.2657 18.4549 28.4567 17.9913 28.4664M19.4655 24.4219C19.3687 24.3582 19.2676 24.301 19.1632 24.2508L19.8437 22.2414L20.8593 22.5L21.0937 21.5914L18.196 20.8492L17.9616 21.757L18.9265 22.0047L18.2522 23.9945C18.1647 23.9859 18.0757 23.9812 17.9851 23.9812H17.9726L17.6679 23.9891L15.3507 16.9078H25.9757L26.1226 17.282L19.4655 24.4219ZM23.6843 25.4133C23.6854 24.2642 24.013 23.1392 24.6291 22.1692C25.2452 21.1993 26.1243 20.4245 27.164 19.9351L28.8608 24.2781C28.5926 24.486 28.4067 24.7822 28.3362 25.1142C28.2657 25.4462 28.3151 25.7924 28.4756 26.0914C28.6362 26.3904 28.8975 26.6228 29.2132 26.7474C29.5288 26.872 29.8785 26.8807 30.1999 26.7719C30.5214 26.6632 30.7939 26.444 30.9691 26.1533C31.1443 25.8627 31.2109 25.5193 31.1569 25.1843C31.103 24.8492 30.932 24.5441 30.6744 24.3232C30.4168 24.1022 30.0893 23.9797 29.7499 23.9773L28.0405 19.6023C29.2603 19.246 30.5613 19.2825 31.7591 19.7067C32.957 20.1309 33.991 20.9213 34.7146 21.9659C35.4383 23.0105 35.8149 24.2563 35.791 25.5269C35.7672 26.7974 35.3442 28.0282 34.5819 29.0449C33.8196 30.0617 32.7566 30.8127 31.5437 31.1917C30.3308 31.5707 29.0294 31.5584 27.8238 31.1566C26.6183 30.7547 25.5697 29.9837 24.8268 28.9528C24.0838 27.9218 23.6841 26.6832 23.6843 25.4125M29.2397 25.4125C29.2397 25.3138 29.269 25.2172 29.3239 25.1351C29.3787 25.053 29.4567 24.9891 29.5479 24.9513C29.6391 24.9135 29.7395 24.9036 29.8364 24.9229C29.9332 24.9421 30.0221 24.9897 30.092 25.0595C30.1618 25.1293 30.2093 25.2183 30.2286 25.3151C30.2479 25.4119 30.238 25.5123 30.2002 25.6035C30.1624 25.6948 30.0984 25.7727 30.0163 25.8276C29.9342 25.8824 29.8377 25.9117 29.739 25.9117C29.6066 25.9115 29.4798 25.8588 29.3862 25.7653C29.2926 25.6717 29.24 25.5448 29.2397 25.4125ZM36.2577 31.5211H38.3812V32.4586H36.2577V31.5211ZM1.73975 31.5437H3.86318V32.4812H1.73975V31.5437Z" fill="#142546"/>
<path d="M29.7343 30.8445V29.907C30.8602 29.9065 31.946 29.4882 32.7813 28.7332C33.6167 27.9782 34.1423 26.9402 34.2563 25.82C34.3703 24.6998 34.0648 23.5771 33.3987 22.6692C32.7326 21.7614 31.7534 21.1329 30.6507 20.9055L30.8389 19.9875C32.1728 20.2579 33.3585 21.0147 34.1655 22.1107C34.9725 23.2066 35.3432 24.5635 35.2054 25.9176C35.0677 27.2716 34.4314 28.526 33.4202 29.4371C32.4091 30.3481 31.0953 30.8506 29.7343 30.8469M18.0382 27.8945C17.8002 27.8945 17.5676 27.824 17.3697 27.6918C17.1719 27.5596 17.0177 27.3717 16.9266 27.1518C16.8356 26.932 16.8117 26.6901 16.8582 26.4567C16.9046 26.2233 17.0192 26.0089 17.1874 25.8407C17.3557 25.6724 17.5701 25.5578 17.8034 25.5114C18.0368 25.465 18.2787 25.4888 18.4986 25.5799C18.7184 25.6709 18.9063 25.8251 19.0385 26.023C19.1707 26.2208 19.2413 26.4534 19.2413 26.6914C19.2411 27.0104 19.1143 27.3163 18.8887 27.5419C18.6631 27.7675 18.3572 27.8943 18.0382 27.8945ZM18.0382 26.4266C17.9856 26.4266 17.9342 26.4422 17.8905 26.4714C17.8468 26.5006 17.8128 26.5421 17.7927 26.5907C17.7726 26.6393 17.7674 26.6927 17.7777 26.7443C17.788 26.7958 17.8134 26.8432 17.8506 26.8803C17.8878 26.9174 17.9352 26.9426 17.9868 26.9528C18.0384 26.963 18.0918 26.9576 18.1404 26.9374C18.1889 26.9171 18.2303 26.883 18.2594 26.8392C18.2885 26.7954 18.3039 26.744 18.3038 26.6914C18.3038 26.6565 18.2969 26.622 18.2836 26.5899C18.2702 26.5577 18.2506 26.5284 18.2259 26.5038C18.2013 26.4792 18.172 26.4597 18.1398 26.4465C18.1075 26.4332 18.073 26.4264 18.0382 26.4266ZM9.54128 30.6883C8.83528 30.689 8.13692 30.5422 7.49093 30.2573C6.84495 29.9724 6.26558 29.5558 5.78995 29.0341C5.31432 28.5123 4.95291 27.897 4.72888 27.2275C4.50484 26.5579 4.42312 25.849 4.48894 25.1461L5.42253 25.2344C5.35639 25.9439 5.47497 26.6586 5.76675 27.3088C6.05852 27.959 6.51356 28.5226 7.08763 28.9449C7.6617 29.3672 8.33526 29.6338 9.04285 29.7187C9.75043 29.8037 10.468 29.7041 11.1257 29.4297L11.4874 30.2945C10.8703 30.5528 10.2079 30.6856 9.53894 30.6851M5.78113 23.8992L4.92878 23.5086C5.45815 22.3525 6.40424 21.4388 7.578 20.95L7.93972 21.8141C6.98347 22.2128 6.21268 22.9573 5.78113 23.8992ZM26.6678 29.907C25.9978 29.4544 25.436 28.8593 25.0229 28.1642C24.6098 27.4691 24.3555 26.6912 24.2782 25.8863C24.201 25.0814 24.3026 24.2693 24.576 23.5083C24.8493 22.7473 25.2875 22.0562 25.8593 21.4844L26.5225 22.1476C26.0482 22.6219 25.6847 23.1952 25.458 23.8264C25.2314 24.4577 25.1472 25.1312 25.2115 25.7989C25.2758 26.4665 25.487 27.1116 25.8299 27.688C26.1729 28.2644 26.6391 28.7578 27.1952 29.1328L26.6678 29.907Z" fill="#142546"/>
</svg>
