<svg width="40" height="40" viewBox="0 0 40 40" fill="none" xmlns="http://www.w3.org/2000/svg">
<path d="M31.9403 20.5078C31.1805 20.6566 25.4704 21.3672 24.2297 21.5996L24.2329 21.6101L23.2977 21.875L23.27 21.7781L23.9891 21.5762C24.0114 21.5039 24.0977 21.4496 24.0848 21.3676C24.0811 21.3438 24.0714 21.3214 24.0567 21.3025C24.0419 21.2836 24.0226 21.2687 24.0004 21.2594L23.1872 21.4879L23.1594 21.391L23.9297 21.1746C23.9266 21.1618 23.9249 21.1487 23.9247 21.1355C24.0282 21.0766 26.5875 20.0598 27.4282 19.5824C28.568 19.1137 30.3579 18.7984 31.6899 18.8437C32.5969 18.8746 33.25 18.9894 33.3184 19.4426C33.384 19.7781 32.7825 20.3449 31.9403 20.5078ZM31.6165 19.6363C31.5817 19.3801 30.9489 19.3238 30.3368 19.4301C29.7063 19.5406 28.9661 19.7601 28.9563 19.9953C29.1411 20.0441 29.7375 20.0308 30.3516 20.0117C30.9614 19.9609 31.6563 19.9355 31.6165 19.6383V19.6363Z" fill="#231815"/>
<path d="M23.3016 21.4774C23.3016 21.4828 23.3016 21.4879 23.3039 21.4934C23.6035 23.7121 21.9902 25.3449 19.8004 26.0567C19.8004 26.0567 17.8418 26.6426 15.8613 26.9117C13.6488 27.2106 11.3891 27.1922 11.3891 27.1922C9.04219 27.1383 7.10039 25.9399 6.80078 23.7211V23.7051L23.3016 21.4774Z" fill="white"/>
<path d="M11.4536 27.2961H11.3879C10.1692 27.268 9.09028 26.9418 8.26645 26.3528C7.38638 25.7235 6.8438 24.818 6.69771 23.7356L6.68286 23.6184L6.78481 23.6047L23.3903 21.3629L23.4067 21.4801C23.6872 23.5563 22.3172 25.3473 19.8325 26.1563C19.8106 26.1629 17.8403 26.75 15.8754 27.0156C13.8899 27.2828 11.8422 27.2961 11.4536 27.2961ZM6.91685 23.7942C7.22935 25.7723 8.93325 27.0317 11.3915 27.0883C11.4125 27.0883 13.668 27.1031 15.8477 26.8086C17.7965 26.5453 19.7512 25.9629 19.7708 25.9571C21.6133 25.3582 23.4723 23.8992 23.2118 21.5946L6.91685 23.7942Z" fill="#231815"/>
<path d="M14.7624 20.6504C19.3198 20.0351 23.1331 20.416 23.278 21.5051C23.423 22.5941 19.8515 23.9726 15.2941 24.5879C10.7366 25.2031 6.92335 24.8222 6.77843 23.7332C6.63351 22.6441 10.2054 21.2656 14.7624 20.6504Z" fill="white"/>
<path d="M11.2059 25C10.5462 25 9.9286 24.9723 9.37001 24.916C8.18993 24.7988 6.7622 24.4988 6.66064 23.7492C6.55907 22.9996 7.85712 22.3328 8.96532 21.9059C10.4821 21.3199 12.536 20.8336 14.7489 20.5348C16.9618 20.2359 19.0712 20.1609 20.6888 20.3234C21.8688 20.4406 23.2966 20.7402 23.3981 21.4902C23.4997 22.2402 22.2017 22.9066 21.0934 23.3336C19.5767 23.9195 17.5227 24.4059 15.3099 24.7047C13.8614 24.8996 12.4567 25 11.2059 25ZM14.7786 20.768C12.5833 21.0645 10.5481 21.5465 9.04814 22.1254C7.63759 22.6699 6.83212 23.2656 6.89306 23.7188C7.01376 24.6137 10.4122 25.1301 15.2786 24.4731C20.145 23.816 23.2864 22.4168 23.1642 21.5223C23.0419 20.6277 19.645 20.1109 14.7786 20.768Z" fill="#231815"/>
<path d="M14.9028 22.4219C16.0446 22.2676 17.4055 21.7234 18.3571 21.6824C20.6004 21.5855 22.3442 21.9371 22.0524 22.6769C21.9184 23.0168 19.0883 23.9894 15.2555 24.507C11.4227 25.0246 8.84495 24.7582 8.25823 24.5656C7.46487 24.3047 9.48362 22.9738 11.8649 22.3297C12.7125 22.0984 13.8957 22.5562 14.9028 22.4219Z" fill="#EDE4E4"/>
<path d="M11.0473 24.8437C9.56766 24.8437 8.58641 24.7117 8.24539 24.6C8.07469 24.5437 8.04109 24.4437 8.04305 24.3715C8.04969 24.1266 8.47274 23.7527 9.2032 23.3457C9.9575 22.9258 10.922 22.5406 11.854 22.2891C12.311 22.1652 12.8516 22.2363 13.4239 22.3117C13.918 22.3766 14.429 22.4437 14.897 22.3805C15.4165 22.3105 15.9848 22.1582 16.5348 22.0109C17.2028 21.832 17.8337 21.6633 18.3544 21.641C20.2903 21.5574 21.7032 21.8004 22.0415 22.275C22.0851 22.3337 22.1123 22.4029 22.1204 22.4756C22.1285 22.5483 22.1172 22.6218 22.0876 22.6887C21.9345 23.0762 18.9337 24.0473 15.2595 24.543C13.8636 24.7365 12.4565 24.837 11.0473 24.8437ZM12.429 22.3C12.2423 22.2974 12.056 22.3195 11.8751 22.3656C9.90242 22.8992 8.13328 23.9336 8.12156 24.375C8.12156 24.4004 8.11883 24.4773 8.27 24.5269C8.86609 24.7223 11.4513 24.9797 15.2497 24.4668C19.2278 23.9297 21.902 22.9488 22.0157 22.6609C22.0403 22.606 22.0497 22.5454 22.0428 22.4857C22.0359 22.4259 22.0131 22.369 21.9766 22.3211C21.6606 21.875 20.2395 21.6406 18.3595 21.7187C17.847 21.741 17.2204 21.9086 16.5567 22.0863C16.0044 22.2344 15.4333 22.3871 14.9091 22.4578C14.4305 22.5223 13.9145 22.4547 13.4153 22.3891C13.0696 22.3437 12.7368 22.3016 12.429 22.3016V22.3Z" fill="#231815"/>
<path d="M10.2285 24.1875L10.196 24.166C10.4355 23.8071 10.7597 23.8051 11.1707 23.8024C11.3476 23.8043 11.5244 23.7957 11.7003 23.7766C11.8957 23.7485 12.088 23.702 12.2746 23.6375C12.6355 23.5235 12.896 23.4422 13.173 23.7836L13.1425 23.8082C12.8816 23.4864 12.6445 23.5614 12.2855 23.6746C12.0966 23.7398 11.902 23.7869 11.7042 23.8153C11.5269 23.8346 11.3486 23.8433 11.1703 23.8414C10.7718 23.8434 10.4562 23.8457 10.2285 24.1875ZM13.68 23.5817L13.641 23.5781C13.6589 23.3789 14.0035 23.0649 14.5246 23.0059C14.6038 22.9936 14.6821 22.9759 14.7589 22.9531C15.1058 22.861 15.5792 22.7344 15.757 23.2965L15.7179 23.3082C15.5531 22.7817 15.1171 22.8977 14.7671 22.9907C14.6898 23.0146 14.611 23.0334 14.5312 23.0469C14.0281 23.1016 13.6968 23.3957 13.68 23.5817ZM15.5777 23.8246L15.5386 23.8211C15.5535 23.6598 15.8191 23.452 16.1769 23.4121C16.2337 23.4035 16.2898 23.3911 16.3449 23.375C16.5957 23.3094 16.939 23.2188 17.0667 23.6211L17.0277 23.6328C16.9105 23.2664 16.6015 23.3473 16.3527 23.4125C16.2957 23.4294 16.2376 23.4424 16.1789 23.4516C15.8246 23.4907 15.5894 23.6953 15.5777 23.8246ZM18.307 23.1348H18.2679C18.2679 23.0137 18.0148 22.9117 17.7156 22.9117C17.4164 22.9117 17.1632 23.0141 17.1632 23.1348H17.1242C17.1242 22.9879 17.3839 22.8727 17.7156 22.8727C18.0472 22.8727 18.307 22.9879 18.307 23.1348Z" fill="#ED9F8C"/>
<path d="M16.0058 17.8711C16.0741 17.4961 16.4331 17.0074 16.3964 16.6211C16.364 16.2785 15.8972 16.1094 15.9667 15.5664C16.0362 15.0234 16.1593 15.0195 16.2011 14.4726C16.2241 14.1715 15.7874 13.2054 15.7413 13.1445C15.7374 13.4476 15.9558 14.3293 15.903 14.6597C15.871 14.8586 15.7409 15.0941 15.6749 15.3484C15.6151 15.5789 15.6878 16.0886 15.8745 16.3914C15.9761 16.5531 16.0698 16.857 15.9222 17.257C15.8085 17.5652 15.6433 18.2023 15.7417 18.5949C15.8401 18.9875 16.1272 19.0636 16.0843 18.8086C16.0413 18.5535 15.9128 18.3816 16.0058 17.8711ZM14.7983 15.9879C14.7042 15.5043 13.6026 15.1992 13.8042 14.4332C14.0058 13.6672 14.2624 13.7355 14.3843 12.9621C14.4511 12.5371 13.6077 11.1601 13.4729 11.0746C13.4612 11.5019 14.0979 12.7461 13.9417 13.2121C13.8487 13.4929 13.4702 13.825 13.2776 14.1836C13.1042 14.509 13.3167 15.2277 13.8577 15.6547C14.1526 15.8828 14.4241 16.3113 13.9956 16.8761C13.6655 17.3113 13.1854 18.2101 13.471 18.764C13.7565 19.3179 14.2132 19.4426 14.0897 19.0824C13.9663 18.7222 13.6628 18.4355 13.9335 17.7152C14.1343 17.1855 14.9046 16.5328 14.7983 15.9879Z" fill="#F16944"/>
</svg>
