<svg width="40" height="40" viewBox="0 0 40 40" fill="none" xmlns="http://www.w3.org/2000/svg">
<path d="M7.0781 32.0312C7.05623 32.0093 7.03474 31.9867 7.01404 31.964H7.01755C7.03787 31.9863 7.05701 32.0082 7.0781 32.0312ZM26.1328 6.09685C24.4867 5.85622 22.3562 6.29216 20.1332 7.32849C17.7734 8.42614 15.4066 10.1281 13.2832 12.2504C10.8328 14.7011 8.91755 17.5273 7.89255 20.2086C6.91404 22.7656 6.7988 25.0133 7.57068 26.5367C7.74349 26.8814 7.97017 27.1962 8.24216 27.4695C8.4588 27.6856 8.70218 27.873 8.96638 28.0273C6.46287 24.8754 8.69568 18.164 14.1644 12.6953C18.8004 8.05974 24.3285 5.74958 27.8258 6.67692C27.3437 6.38513 26.7781 6.1906 26.1328 6.09685Z" fill="white"/>
<path d="M32.7015 6.61992C32.6883 6.60586 32.675 6.59258 32.6625 6.57852C31.5015 5.41914 29.8437 4.82812 27.8414 4.82812C27.5393 4.82812 27.2295 4.84115 26.9121 4.86719C27.9277 5.10742 28.782 5.57031 29.4609 6.24922C31.1344 7.92305 31.4879 10.666 30.457 13.9734C30.4307 14.0584 30.3879 14.1374 30.3311 14.2058C30.2742 14.2742 30.2044 14.3307 30.1257 14.3721C30.0469 14.4135 29.9608 14.4389 29.8722 14.4469C29.7836 14.4549 29.6942 14.4453 29.6094 14.4188C29.6044 14.4174 29.5996 14.4157 29.5949 14.4137C29.4274 14.3574 29.2886 14.2378 29.2083 14.0805C29.128 13.9231 29.1125 13.7405 29.1652 13.5719C29.6008 12.1754 29.7613 10.9066 29.6426 9.80195C29.5254 8.71992 29.1429 7.84688 28.5035 7.20703C28.2994 7.00366 28.0718 6.82544 27.8254 6.67617C24.3281 5.74883 18.8019 8.05898 14.164 12.6945C8.69529 18.1633 6.46248 24.8754 8.96521 28.0273C9.49177 28.3367 10.1179 28.5316 10.8359 28.6086C11.9406 28.7258 13.209 28.5668 14.6058 28.1313C17.5582 27.2109 20.7031 25.1852 23.4613 22.4281C24.7661 21.1315 25.9321 19.7024 26.9406 18.1641C27.0374 18.015 27.1891 17.9101 27.3627 17.872C27.5363 17.8339 27.718 17.8657 27.8683 17.9605C27.8712 17.962 27.874 17.9637 27.8765 17.9656C27.9512 18.0141 28.0156 18.0768 28.0661 18.1501C28.1165 18.2235 28.1519 18.3061 28.1703 18.3932C28.1887 18.4803 28.1897 18.5702 28.1733 18.6577C28.1569 18.7452 28.1233 18.8286 28.0746 18.9031C27.015 20.5207 25.7896 22.0233 24.4183 23.3867C21.5086 26.2969 18.1683 28.4414 15.0086 29.4254C13.7672 29.8102 12.6039 30 11.5484 30C9.7906 30 8.33005 29.4699 7.28474 28.425C6.91106 28.05 6.59959 27.6177 6.36208 27.1445C6.16267 26.7458 6.01072 26.3251 5.90935 25.891C5.70974 28.3027 6.29138 30.2859 7.62185 31.6164C8.03654 32.0299 8.51505 32.374 9.03904 32.6355C13.673 33.4883 20.3281 30.7215 25.8383 25.2109C32.1094 18.9414 34.8269 11.191 32.7015 6.61992ZM29.6031 16.1633C29.573 16.2273 29.5523 16.2723 29.5351 16.3098C29.4879 16.4141 29.4609 16.4715 29.3754 16.6391C29.2933 16.7986 29.1512 16.919 28.9804 16.9739C28.8096 17.0287 28.624 17.0135 28.4644 16.9316C28.4644 16.9316 28.4621 16.9316 28.4605 16.9293C28.3021 16.8468 28.1827 16.7049 28.1286 16.5346C28.0744 16.3644 28.0898 16.1796 28.1715 16.0207C28.2472 15.8742 28.264 15.8371 28.3047 15.7473C28.3226 15.7082 28.3437 15.6586 28.3769 15.591C28.4518 15.4303 28.5867 15.3055 28.7527 15.2433C28.9187 15.1811 29.1024 15.1866 29.2644 15.2586C29.2682 15.26 29.2719 15.2617 29.2754 15.2637C29.356 15.3012 29.4284 15.3543 29.4885 15.4198C29.5485 15.4853 29.5951 15.5621 29.6256 15.6456C29.656 15.7291 29.6697 15.8178 29.6658 15.9067C29.662 15.9955 29.6407 16.0827 29.6031 16.1633Z" fill="white"/>
<path d="M7.0781 32.0313C7.05623 32.0094 7.03474 31.9867 7.01404 31.9641H7.01755C7.03787 31.9864 7.05701 32.0082 7.0781 32.0313ZM33.8883 14.9348C32.8547 18.6719 30.4187 22.5942 27.0281 25.9852C23.6375 29.3762 19.7129 31.8117 15.9765 32.8449C13.2054 33.6117 10.8094 33.5305 9.03787 32.6371C13.6719 33.4899 20.3269 30.7231 25.8371 25.2125C32.1078 18.9414 34.8258 11.1891 32.7004 6.61877C34.4554 8.41174 34.8769 11.3614 33.8883 14.9348Z" fill="#DDDDDD"/>
<path d="M7.01755 31.9644H7.01404C7.03474 31.9871 7.05623 32.0097 7.0781 32.0316C7.05701 32.0082 7.03787 31.9863 7.01755 31.9644ZM27.8258 6.67614C24.3285 5.7488 18.8023 8.05895 14.1644 12.6945C8.69568 18.1633 6.46287 24.8754 8.9656 28.0273C8.70167 27.873 8.45856 27.6855 8.24216 27.4695C7.97017 27.1962 7.74349 26.8813 7.57068 26.5367C6.79998 25.0133 6.91404 22.7648 7.89255 20.2086C8.91912 17.5273 10.8344 14.7008 13.2832 12.2504C15.4051 10.1289 17.7754 8.42692 20.1332 7.32849C22.3562 6.29372 24.4867 5.85622 26.1328 6.09684C26.7781 6.19059 27.3437 6.38513 27.8258 6.67614Z" fill="white"/>
<path d="M27.8258 6.67614C24.3285 5.7488 18.8023 8.05895 14.1644 12.6945C8.69569 18.1633 6.46288 24.8754 8.96561 28.0273C8.70168 27.873 8.45857 27.6855 8.24218 27.4695C7.97018 27.1962 7.7435 26.8813 7.57069 26.5367C6.79999 25.0133 6.91405 22.7648 7.89257 20.2086C8.91913 17.5273 10.8344 14.7008 13.2832 12.2504C15.4051 10.1289 17.7754 8.42692 20.1332 7.32849C22.3562 6.29372 24.4867 5.85622 26.1328 6.09684C26.7781 6.19059 27.3437 6.38513 27.8258 6.67614Z" fill="#DDDDDD"/>
<path d="M7.01755 31.9645H7.01404C7.03474 31.9871 7.05623 32.0098 7.0781 32.0317C7.05701 32.0082 7.03787 31.9864 7.01755 31.9645Z" fill="#303030"/>
<path d="M35.6543 9.89099C35.4027 8.15818 34.7168 6.72146 33.618 5.62185C32.5191 4.52224 31.0816 3.83709 29.3481 3.58553C27.7234 3.35115 25.9051 3.50506 23.9441 4.04764C19.9871 5.14139 15.8512 7.70193 12.2977 11.2547C8.74415 14.8074 6.18516 18.9453 5.09063 22.9008C4.54806 24.8621 4.39259 26.6804 4.62813 28.3051C4.88009 30.0387 5.56563 31.475 6.66485 32.5746C7.76407 33.6742 9.20118 34.3594 10.9344 34.6094C11.4389 34.6818 11.9481 34.7175 12.4578 34.7164C13.6688 34.7164 14.9703 34.5262 16.3387 34.1476C20.2961 33.0539 24.4316 30.4929 27.9852 26.9398C31.5387 23.3867 34.0977 19.2523 35.1922 15.2953C35.7348 13.3347 35.8902 11.5164 35.6543 9.89099ZM7.01407 31.9613H7.01759C7.0379 31.9832 7.05665 32.0051 7.07813 32.0265C7.05626 32.0078 7.03477 31.9851 7.01407 31.9625V31.9613ZM33.8891 14.9336C32.8547 18.6719 30.4188 22.5941 27.0281 25.9851C23.6375 29.3761 19.7129 31.8117 15.9766 32.8449C13.2055 33.6117 10.8094 33.5304 9.0379 32.6371C8.51391 32.3756 8.0354 32.0315 7.62071 31.6179C6.29024 30.2875 5.70665 28.3043 5.90821 25.8926C6.00958 26.3267 6.16153 26.7474 6.36095 27.1461C6.59845 27.6192 6.90992 28.0515 7.2836 28.4265C8.33009 29.4715 9.79181 30 11.5484 30C12.6031 30 13.7672 29.8086 15.0086 29.4211C18.1664 28.4371 21.5086 26.2926 24.4184 23.3824C25.7896 22.019 27.015 20.5163 28.0746 18.8988C28.1234 18.8243 28.1569 18.7409 28.1733 18.6534C28.1897 18.5659 28.1887 18.476 28.1703 18.3889C28.1519 18.3018 28.1165 18.2192 28.0661 18.1458C28.0157 18.0724 27.9513 18.0097 27.8766 17.9613C27.874 17.9593 27.8713 17.9576 27.8684 17.9562C27.7175 17.8618 27.5355 17.8307 27.3618 17.8696C27.1881 17.9085 27.0368 18.0143 26.9406 18.164C25.9323 19.7024 24.7664 21.1315 23.4617 22.4281C20.7035 25.1859 17.5586 27.2117 14.6063 28.1312C13.2094 28.5668 11.941 28.7269 10.8363 28.6086C10.1184 28.5304 9.4922 28.3351 8.96563 28.0273C8.7017 27.873 8.45859 27.6855 8.2422 27.4695C7.9702 27.1962 7.74352 26.8814 7.57071 26.5367C6.80001 25.0133 6.91407 22.7648 7.89259 20.2086C8.91915 17.5273 10.8344 14.7008 13.2832 12.2504C15.4051 10.1289 17.7754 8.42693 20.1332 7.32849C22.3563 6.29373 24.4867 5.85623 26.1328 6.09685C26.7774 6.1906 27.3438 6.38514 27.825 6.67615C28.0717 6.82537 28.2996 7.00359 28.5039 7.20701C29.1434 7.84685 29.5266 8.7199 29.643 9.80193C29.7602 10.9066 29.6012 12.1754 29.1656 13.5719C29.1129 13.7405 29.1284 13.9231 29.2087 14.0804C29.289 14.2378 29.4278 14.3574 29.5953 14.4137C29.6 14.4157 29.6048 14.4174 29.6098 14.4187C29.6945 14.4452 29.7837 14.4548 29.8722 14.4468C29.9606 14.4388 30.0466 14.4135 30.1253 14.3722C30.2039 14.331 30.2737 14.2746 30.3305 14.2064C30.3874 14.1382 30.4303 14.0594 30.4566 13.9746C31.4879 10.6672 31.1328 7.9242 29.4609 6.24998C28.782 5.57146 27.9266 5.10818 26.9121 4.86795C27.2296 4.84191 27.5393 4.82889 27.8414 4.82889C29.8449 4.82889 31.5016 5.4199 32.6609 6.57928C32.675 6.59334 32.6883 6.60662 32.7 6.62068C34.4555 8.4117 34.877 11.3613 33.8883 14.9347L33.8891 14.9336Z" fill="#303030"/>
<path d="M29.6031 16.1633C29.573 16.2273 29.5523 16.2723 29.5351 16.3098C29.4879 16.4141 29.4609 16.4715 29.3754 16.6391C29.2933 16.7986 29.1513 16.919 28.9804 16.9738C28.8096 17.0287 28.6241 17.0135 28.4644 16.9316C28.4644 16.9316 28.4621 16.9316 28.4605 16.9293C28.3021 16.8467 28.1828 16.7049 28.1286 16.5346C28.0744 16.3644 28.0898 16.1796 28.1715 16.0207C28.2473 15.8742 28.264 15.8371 28.3047 15.7473C28.3226 15.7082 28.3437 15.6586 28.3769 15.591C28.4518 15.4303 28.5867 15.3055 28.7527 15.2433C28.9187 15.1811 29.1025 15.1866 29.2644 15.2586C29.2682 15.26 29.2719 15.2617 29.2754 15.2637C29.356 15.3012 29.4284 15.3543 29.4885 15.4198C29.5486 15.4853 29.5952 15.562 29.6256 15.6456C29.656 15.7291 29.6697 15.8178 29.6658 15.9067C29.662 15.9955 29.6407 16.0827 29.6031 16.1633ZM23.689 13.8789C23.6222 13.2148 23.3652 12.641 22.9469 12.2223C22.1512 11.4266 20.8851 11.2457 19.382 11.7144C18.0277 12.1367 16.6008 13.0504 15.364 14.2867C14.1273 15.523 13.2137 16.9531 12.7914 18.3055C12.3226 19.8086 12.5031 21.075 13.2992 21.8703C13.7043 22.2754 14.2312 22.5215 14.866 22.6027C15.0176 22.6219 15.1702 22.6313 15.323 22.6309C16.1609 22.6309 17.1117 22.3637 18.0722 21.8769C19.0328 21.3902 20.0035 20.6836 20.882 19.8066C21.8031 18.8859 22.5523 17.8504 23.0488 16.8117C23.5547 15.7523 23.7762 14.7387 23.689 13.8789ZM15.039 21.2609C14.7078 21.2184 14.4449 21.1016 14.2578 20.9141C13.4055 20.0617 14.0445 17.5238 16.323 15.2445C17.9601 13.6074 19.7305 12.8172 20.914 12.8172C21.3785 12.8172 21.7527 12.9387 21.993 13.1793C22.191 13.3777 22.3101 13.6586 22.3445 14.0152C22.3528 14.097 22.3568 14.1791 22.3566 14.2613C22.3566 15.5617 21.4094 17.3652 19.9258 18.8484C18.064 20.709 16.1297 21.4004 15.039 21.2609Z" fill="#303030"/>
<path d="M22.3555 14.2613C22.3555 15.5617 21.4082 17.3652 19.9246 18.8484C18.0641 20.709 16.1297 21.4004 15.0371 21.261C14.7059 21.2184 14.443 21.1016 14.2559 20.9141C13.4035 20.0617 14.0426 17.5238 16.3211 15.2445C17.9582 13.6074 19.7285 12.8172 20.9121 12.8172C21.3766 12.8172 21.7508 12.9387 21.991 13.1793C22.1891 13.3777 22.3082 13.6586 22.3426 14.0152C22.3511 14.097 22.3554 14.1791 22.3555 14.2613Z" fill="#FFA766"/>
</svg>
