<svg width="40" height="40" viewBox="0 0 40 40" fill="none" xmlns="http://www.w3.org/2000/svg">
<path d="M33.7305 27.9766V15.5352H6.26953V27.9766C6.26953 28.4805 6.48437 28.9336 6.82422 29.2539H33.1719C33.5156 28.9336 33.7305 28.4805 33.7305 27.9766Z" fill="#F2C05C"/>
<path d="M13.1406 22.3945C13.1406 23.2953 13.318 24.1873 13.6628 25.0195C14.0075 25.8517 14.5127 26.6079 15.1497 27.2448C15.7866 27.8818 16.5428 28.3871 17.375 28.7318C18.2072 29.0765 19.0992 29.2539 20 29.2539C20.9008 29.2539 21.7928 29.0765 22.625 28.7318C23.4572 28.3871 24.2134 27.8818 24.8503 27.2448C25.4873 26.6079 25.9925 25.8517 26.3372 25.0195C26.682 24.1873 26.8594 23.2953 26.8594 22.3945C26.8594 20.5753 26.1367 18.8306 24.8503 17.5442C23.5639 16.2578 21.8192 15.5352 20 15.5352C18.1808 15.5352 16.4361 16.2578 15.1497 17.5442C13.8633 18.8306 13.1406 20.5753 13.1406 22.3945Z" fill="#078E7B"/>
<path d="M13.5508 22.3945C13.5508 23.2415 13.7176 24.0801 14.0417 24.8625C14.3658 25.645 14.8408 26.356 15.4397 26.9548C16.0386 27.5537 16.7495 28.0287 17.532 28.3528C18.3144 28.6769 19.1531 28.8438 20 28.8438C20.8469 28.8438 21.6856 28.6769 22.468 28.3528C23.2505 28.0287 23.9614 27.5537 24.5603 26.9548C25.1592 26.356 25.6342 25.645 25.9583 24.8625C26.2824 24.0801 26.4492 23.2415 26.4492 22.3945C26.4492 21.5476 26.2824 20.709 25.9583 19.9265C25.6342 19.1441 25.1592 18.4331 24.5603 17.8342C23.9614 17.2354 23.2505 16.7603 22.468 16.4362C21.6856 16.1121 20.8469 15.9453 20 15.9453C19.1531 15.9453 18.3144 16.1121 17.532 16.4362C16.7495 16.7603 16.0386 17.2354 15.4397 17.8342C14.8408 18.4331 14.3658 19.1441 14.0417 19.9265C13.7176 20.709 13.5508 21.5476 13.5508 22.3945Z" fill="#0EAA97"/>
<path d="M15.0938 22.3945C15.0937 23.0388 15.2207 23.6768 15.4672 24.2721C15.7138 24.8673 16.0752 25.4082 16.5308 25.8638C16.9863 26.3194 17.5272 26.6808 18.1225 26.9273C18.7177 27.1739 19.3557 27.3008 20 27.3008C20.6443 27.3008 21.2823 27.1739 21.8775 26.9273C22.4728 26.6808 23.0137 26.3194 23.4692 25.8638C23.9248 25.4082 24.2862 24.8673 24.5328 24.2721C24.7793 23.6768 24.9062 23.0388 24.9062 22.3945C24.9062 21.7502 24.7793 21.1122 24.5328 20.517C24.2862 19.9217 23.9248 19.3809 23.4692 18.9253C23.0137 18.4697 22.4728 18.1083 21.8775 17.8617C21.2823 17.6152 20.6443 17.4883 20 17.4883C19.3557 17.4883 18.7177 17.6152 18.1225 17.8617C17.5272 18.1083 16.9863 18.4697 16.5308 18.9253C16.0752 19.3809 15.7138 19.9217 15.4672 20.517C15.2207 21.1122 15.0937 21.7502 15.0938 22.3945Z" fill="#87ECF4"/>
<path d="M23.1797 24.0508C23.1328 24.0508 23.0859 24.043 23.043 24.0273C22.8398 23.9492 22.7383 23.7266 22.8164 23.5234C22.9453 23.1797 23.0117 22.8125 23.0117 22.4414C23.0117 21.2656 22.3281 20.1797 21.2656 19.6758C21.0703 19.582 20.9883 19.3516 21.082 19.1562C21.1758 18.9609 21.4062 18.8789 21.6016 18.9727C22.9336 19.6055 23.793 20.9687 23.793 22.4414C23.793 22.9102 23.7109 23.3672 23.5469 23.8008C23.4883 23.9531 23.3398 24.0508 23.1797 24.0508ZM20.3516 19.3984C20.3359 19.3984 20.3203 19.3984 20.3047 19.3945C20.1875 19.3828 20.0664 19.375 19.9492 19.375C19.7344 19.375 19.5586 19.1992 19.5586 18.9844C19.5586 18.7695 19.7344 18.5938 19.9492 18.5938C20.0977 18.5938 20.25 18.6016 20.3945 18.6211C20.6094 18.6445 20.7617 18.8398 20.7383 19.0547C20.7148 19.2539 20.5469 19.3984 20.3516 19.3984Z" fill="#D6FBFC"/>
<path d="M22.0742 10.3711H17.4648C17.1289 10.3711 16.8164 10.5547 16.6562 10.8555L15.7461 12.5469H23.793L22.8828 10.8555C22.7227 10.5547 22.4102 10.3711 22.0742 10.3711Z" fill="#078E7B"/>
<path d="M18.6016 12.168H17.6563C17.5273 12.168 17.4219 12.0625 17.4219 11.9336V10.9883C17.4219 10.8594 17.5273 10.7539 17.6563 10.7539H18.6016C18.7305 10.7539 18.8359 10.8594 18.8359 10.9883V11.9336C18.8398 12.0625 18.7344 12.168 18.6016 12.168Z" fill="#09685A"/>
<path d="M30.6836 12.2461H25.3516C25.3281 12.2461 25.3125 12.2617 25.3125 12.2852V12.5469H30.7227V12.2852C30.7227 12.2617 30.707 12.2461 30.6836 12.2461Z" fill="#078E7B"/>
<path d="M30.0195 10.5859H25.9766C25.8594 10.5859 25.7617 10.6836 25.7617 10.8008V12.2461H30.2344V10.8008C30.2344 10.6836 30.1367 10.5859 30.0195 10.5859Z" fill="#0EAA97"/>
<path d="M14.4922 11.1992H9.49219C9.33984 11.1992 9.21875 11.3203 9.21875 11.4727V12.5469H14.7656V11.4727C14.7656 11.3203 14.6445 11.1992 14.4922 11.1992Z" fill="#078E7B"/>
<path d="M9.33984 11.3242H9.43359V12.4844H9.33984V11.3242ZM9.53516 11.3242H9.62891V12.4844H9.53516V11.3242ZM9.73047 11.3242H9.82422V12.4844H9.73047V11.3242ZM9.92187 11.3242H10.0156V12.4844H9.92187V11.3242ZM10.1172 11.3242H10.2109V12.4844H10.1172V11.3242ZM10.3125 11.3242H10.4062V12.4844H10.3125V11.3242ZM10.5039 11.3242H10.5977V12.4844H10.5039V11.3242ZM10.6992 11.3242H10.793V12.4844H10.6992V11.3242ZM10.8945 11.3242H10.9883V12.4844H10.8945V11.3242ZM11.0859 11.3242H11.1797V12.4844H11.0859V11.3242ZM11.2812 11.3242H11.375V12.4844H11.2812V11.3242ZM11.4766 11.3242H11.5703V12.4844H11.4766V11.3242ZM11.6719 11.3242H11.7656V12.4844H11.6719V11.3242ZM11.8633 11.3242H11.957V12.4844H11.8633V11.3242ZM12.0586 11.3242H12.1523V12.4844H12.0586V11.3242ZM12.2539 11.3242H12.3477V12.4844H12.2539V11.3242ZM12.4453 11.3242H12.5391V12.4844H12.4453V11.3242ZM12.6406 11.3242H12.7344V12.4844H12.6406V11.3242ZM12.8359 11.3242H12.9297V12.4844H12.8359V11.3242ZM13.0273 11.3242H13.1211V12.4844H13.0273V11.3242ZM13.2227 11.3242H13.3164V12.4844H13.2227V11.3242ZM13.418 11.3242H13.5117V12.4844H13.418V11.3242ZM13.6133 11.3242H13.707V12.4844H13.6133V11.3242ZM13.8047 11.3242H13.8984V12.4844H13.8047V11.3242ZM14 11.3242H14.0937V12.4844H14V11.3242ZM14.1953 11.3242H14.2891V12.4844H14.1953V11.3242ZM14.3867 11.3242H14.4805V12.4844H14.3867V11.3242ZM14.582 11.3242H14.6758V12.4844H14.582V11.3242Z" fill="#09685A"/>
<path d="M33.7305 14.2891C33.7305 13.3242 32.9492 12.543 31.9844 12.543H8.01562C7.05078 12.543 6.26953 13.3242 6.26953 14.2891V15.5352H33.7305V14.2891ZM8.01562 29.7227H31.9844C32.4453 29.7227 32.8633 29.543 33.1719 29.2539H6.82813C7.13672 29.543 7.55469 29.7227 8.01562 29.7227Z" fill="#0EAA97"/>
</svg>
