<svg t="1722583058645" class="icon" viewBox="0 0 1178 1024" version="1.1" xmlns="http://www.w3.org/2000/svg" p-id="5078" width="200" height="200">
  <path d="M781.8607608 678.62257336c-119.62916523 61.29832846-251.1338917 61.29832846-370.93739631 0-11.00293347-5.58910237-19.73479879-23.57771491-19.7347988-39.11998805v-39.99261467c0-15.71847623 8.90620473-23.22810425 19.7347988-17.6390019 119.62823339 61.29832846 251.13295986 61.29832846 370.93739631 0 11.00200163-5.58910237 19.73386695 2.09579691 19.73386696 17.6390019v39.99261467c0 15.54320498-8.73186531 33.53088455-19.73386696 39.11905509z" fill="#C1272D" p-id="5079"></path>
  <path d="M897.12399396 332.6576027c-1.74711922-30.56152917 1.57091499-57.80595598-11.87556012-81.20746666-33.18220686-57.63161657-116.8350811-90.81382343-286.23755718-90.81382343v1.74711808h-1.92052568 1.92052568v-1.74711808c-164.16205141 0-254.97587598 33.70615581-288.15715102 91.33684054-13.44740807 23.40244366-11.52688242 50.47159922-13.27306865 81.03499206-1.39657671 24.27413845-12.22423893 50.64500565-7.85923869 78.58771968 5.76344178 36.32496981 8.03450994 72.47653319 13.62267933 106.1817583 4.36593323 27.41876622 41.21485198 50.12198855 44.70815744 76.3175845 9.60542493 71.25429589 81.55707619 103.91162197 250.95862159 103.91162197v0.69922018h-2.27013633 2.27013633v-0.69922018c171.14866347 0 239.43360285-32.65825792 249.03902662-103.91069014 3.49237362-26.19746077 38.76944441-48.89975125 43.3106489-76.31851633 5.41383111-33.70615581 7.68396743-69.85678734 13.44740919-106.1817583 4.36593323-28.29232469-6.28739072-54.66226005-7.68396741-78.93733034z" fill="#EFCCA3" p-id="5080"></path>
  <path d="M781.8607608 714.07398357c-119.62916523 44.1842085-251.1338917 44.1842085-370.93739631 0-11.00293347-4.01632256-19.73479879-16.93978169-19.7347988-28.29139284V656.9653841c0-11.35161117 8.90620473-16.76544227 19.7347988-12.74818787 119.62823339 44.1842085 251.13295986 44.1842085 370.93739631 0 11.00200163-4.0172544 19.73386695 1.39657671 19.73386696 12.74818787v28.81627365c0 11.17633991-8.73186531 24.09979904-19.73386696 28.29139399z" fill="#ED1C24" p-id="5081"></path>
  <path d="M596.39206265 728.9189002m-16.93978168-1e-8a16.93978169 16.93978169 0 1 0 33.87956336 0 16.93978169 16.93978169 0 1 0-33.87956336 0Z" fill="#C1272D" p-id="5082"></path>
  <path d="M597.09035098 356.23531648c30.38718976 0.34867769 51.34422585 20.43215417 71.0780917 37.89681778 22.87849358 20.25874773 62.69676999 34.57878357 78.76392502 51.86817593 16.06715392 17.28939122 37.02419001 35.45234318 44.88249573 62.69676886 7.85923869 27.24349497 10.12937387 62.34622749 10.12937385 71.2524322 0 9.08147598 5.2394917 6.98567907 19.03557862 0 32.65825792-16.41583275 69.3328384-59.37780281 69.3328384-59.3778028-4.36593323 27.41876622-39.64393699 49.77237789-43.13724247 75.96890566-9.60449195 71.25336405-78.93733035 103.56201131-249.91072255 103.56201245h-1.04789789 2.61974585" fill="#CCAC8D" p-id="5083"></path>
  <path d="M707.98765092 303.14397256c6.63606841 21.82966386 28.46573227 95.35409493-14.49530711 70.37980329 0 0 17.8133413 10.47898453 29.51456312 50.12198969 11.52595058 39.46959758 40.69090304 44.53381803 40.69090305 44.53381803s46.80395435 8.90620473 81.55707621-20.60742656c29.68890141-25.1486299 34.40444416-70.03112675 21.83059569-103.91162082s-35.10273251-44.35854677-68.11059996-51.34422586c-32.83166435-6.98567907-98.14818019-13.27306979-90.987231 10.82766222z" fill="#CCAC8D" p-id="5084"></path>
  <path d="M791.29091449 383.12920079m-61.47359972 0a61.47359971 61.47359971 0 1 0 122.94719943 0 61.47359971 61.47359971 0 1 0-122.94719943 0Z" fill="" p-id="5085"></path>
  <path d="M775.57337008 355.7104357m-15.71754437 0a15.71754439 15.71754439 0 1 0 31.43508877 0 15.71754439 15.71754439 0 1 0-31.43508877 0Z" fill="#FFFFFF" p-id="5086"></path>
  <path d="M698.03354829 380.16077725s55.53488782 37.37286883 85.57339876 74.74573653c30.03851207 37.37380067 29.51456313 44.35854677 29.51456313 44.3585479l-21.30664675 9.43108553s-30.56246101-57.80595598-68.63361708-79.81088996c-38.07208903-21.82966386-42.78763179-40.1669541-42.78763178-40.1669541l17.63900188-8.55845774z" fill="#EFCCA3" p-id="5087"></path>
  <path d="M596.39206265 726.47349376m-14.4953071 0a14.49530709 14.49530709 0 1 0 28.99061417 0 14.49530709 14.49530709 0 1 0-28.99061417 0Z" fill="#FF931E" p-id="5088"></path>
  <path d="M600.75799474 731.53864606m-5.06422045 0a5.06422045 5.06422045 0 1 0 10.12844203 0 5.06422045 5.06422045 0 1 0-10.12844203 0Z" fill="#FFB81E" p-id="5089"></path>
  <path d="M596.39206265 749.00237668m-9.77976435 0a9.77976434 9.77976434 0 1 0 19.55952755 0 9.77976434 9.77976434 0 1 0-19.55952755 0Z" fill="#FF931E" p-id="5090"></path>
  <path d="M599.36048618 752.32041089m-3.49237247 0a3.49237362 3.49237362 0 1 0 6.9847461 0 3.49237362 3.49237362 0 1 0-6.9847461 0Z" fill="#FFB81E" p-id="5091"></path>
  <path d="M599.01087666 356.23531648c-30.38718976 0.34867769-52.21778546 20.43215417-71.95165241 37.89681778-22.87849358 20.25874773-63.21978709 34.57878357-79.28694102 51.86817593-16.06715392 17.28939122-37.37286883 35.45234318-45.23210639 62.69676886-7.85923869 27.24349497-10.30371328 62.34622749-10.30371326 71.2524322 0 9.08147598 1.57184797 9.77976434-19.0355786 0-33.00786859-15.54320498-69.50717667-59.37780281-69.50717669-59.3778028 4.36593323 27.41876622 39.64300402 49.77237789 43.13630948 75.96890566 9.60449195 71.25336405 78.93733035 103.56201131 249.73638315 103.56201245h2.27013632" fill="#CCAC8D" p-id="5092"></path>
  <path d="M762.30030144 476.03882226c-33.70522397-41.56539449-87.49485739-79.63655168-161.89191625-79.63655169H599.71009686c-74.39705885 0-128.18669227 38.07115719-161.89284808 79.6365517-34.75312299 42.26274987-32.48298667 59.37780281-32.48298667 100.06870584 0 146.87359203 51.51856526 103.38767189 85.92394125 121.02667379 35.10273251 17.28939122 70.90375339 10.30371328 108.4518935 10.30371327H600.40838519c37.54814009 0 73.34916096 6.46079715 108.45189349-10.82766223 34.40444416-17.63900189 85.92394126 26.71954489 85.92394126-120.15404714 0-40.69090304 2.27013632-58.15463367-32.4839185-100.41738353z" fill="#56332B" p-id="5093"></path>
  <path d="M596.56640092 432.37856271s-4.71554275 67.41137977-14.84491662 80.6835177l18.16295195-4.3659332-3.31896716-76.3175845z" fill="#442823" p-id="5094"></path>
  <path d="M601.28194482 432.37856271s4.71461091 67.41137977 14.84398365 80.6835177l-18.16201785-4.3659332 3.3180342-76.3175845z" fill="#442823" p-id="5095"></path>
  <path d="M542.77676863 416.66008647c-7.16001735-16.06622208 17.8133413-42.26274987 57.80595484-42.262751 39.81827527 0 64.96690517 26.19652779 57.80688783 42.262751-6.98567907 16.41676459-32.48391851 21.8305957-57.80688783 22.17927338-25.32296931-0.34867769-50.64593749-5.58817053-57.80595484-22.17927338z" fill="#56332B" p-id="5096"></path>
  <path d="M601.10667355 432.37856271c-0.17433941-2.96935651 23.92639261-3.31896605 36.32590167-11.87649308 0 0-26.02218951 8.20884821-31.6103589 5.06515341-5.76344178-3.14369479-6.81133966-11.35161117-7.33435676-11.35161116s-1.74711922 8.73186531-6.46173015 11.35161116c-4.71554275 2.61974585-34.23010589-5.06515342-34.23010473-5.06515341s39.11905507 9.43108551 38.94471565 11.70122182c-0.34867769 2.27013632-0.34867769 8.90713657-0.34867768 13.79701874 0 17.46373063 0.34867769 60.94965077 2.61974585 64.26768499 4.36593323 6.46172899 2.61974585-46.80395435 2.61974583-64.26768499-0.17527125-4.71554275-0.34961067-10.65332281-0.52488078-13.62174748z" fill="" p-id="5097"></path>
  <path d="M601.80589377 526.5094885c11.87556011 0 32.83259733 8.03357696 51.51856525 21.48098503-18.33729024-19.90913821-39.81827527-34.22917291-51.51856525-34.2291729-12.57478144 0-38.94564864 15.54227314-58.33083678 37.72154651 20.43308715-15.71754439 45.40737763-24.97335865 58.33083678-24.97335864z" fill="#7F4A41" p-id="5098"></path>
  <path d="M597.43902869 649.63195918c-26.71954489 0-52.39212487-8.38318763-75.96797498-14.49530597-5.06515342-1.39750855-10.12937387 2.27013632-15.01925489 0.69828723-43.83553081-13.97135701-79.63655168-37.89774962-101.46621553-67.58571918 0 2.27013632 0.17433941 4.71461091 0.1743394 7.1600185 0 146.87359203 51.51856526 103.56201131 85.9230094 121.37535146 35.10273251 17.28939122 70.90468637 10.47898453 108.45189352 10.47898454h0.69922019c37.54720711 0 73.34916096 6.46079715 108.45189346-10.82859407 34.40444416-17.63900189 85.92300942 26.19652779 85.92300943-120.67613241 0-5.58910237 0.17527125-10.82859406 0.52394894-15.71847623-20.43308715 32.48391851-57.2820059 59.02912512-103.5620113 74.57233009-4.36593323 1.39657671-13.79608576-2.27013632-18.33729025-0.87355846-24.79901923 6.81133966-47.15263203 15.89281565-75.79363555 15.8928145z" fill="#442823" p-id="5099"></path>
  <path d="M530.72686913 570.86803528s-17.63900189 52.39305671-5.58910239 75.44495786l-16.06622207-7.16001849s12.39951019-52.91607381 21.65532446-68.28493937zM669.39161293 570.86803528s17.63900189 52.39305671 5.58817053 75.44495786l16.06715393-7.16001849s-12.39951019-52.91607381-21.65532447-68.28493937z" fill="#442823" p-id="5100"></path>
  <path d="M486.19304997 303.14397256c-6.63606841 21.82966386-28.46666411 95.35409493 14.49530707 70.37980329 0 0-17.8133413 10.47898453-29.51456312 50.12198969s-40.69090304 44.53381803-40.6909019 44.53381803-46.80395435 8.90620473-81.55707735-20.60742656c-29.68983438-25.1486299-34.40444416-70.03112675-21.83059568-103.91162082s35.10273251-44.35854677 68.10966924-51.34422586c32.83259733-6.98567907 98.32345145-13.27306979 90.98816174 10.82766222z" fill="#CCAC8D" p-id="5101"></path>
  <path d="M600.05877453 513.76130063c18.51256149 0 77.36641536 40.34129237 78.41431437 90.46328092 0-0.87262663 0.17433941-1.74618624 0.17433831-2.4444746 0-51.34422585-47.67751395-92.90962034-78.58865268-92.90962035-30.9111387 0-78.58772082 41.56539449-78.58772082 92.90962034 0 0.87262663 0.17433941 1.74618624 0.17433943 2.44447461 1.04789789-50.29632797 59.72741347-90.46328093 78.41338139-90.46328092z" fill="" p-id="5102"></path>
  <path d="M607.22804998 407.94964437a10.82751317 5.76303104 75.54 1 0 11.16094124-2.87810446 10.82751317 5.76303104 75.54 1 0-11.16094124 2.87810446Z" fill="#331712" p-id="5103"></path>
  <path d="M576.88922488 404.81399823a5.76318464 10.82780217 17.236 1 0 11.00874866 3.41535742 5.76318464 10.82780217 17.236 1 0-11.00874866-3.41535742Z" fill="#331712" p-id="5104"></path>
  <path d="M406.55649941 383.12920079m-61.47360085 0a61.47359971 61.47359971 0 1 0 122.94720057 0 61.47359971 61.47359971 0 1 0-122.94720057 0Z" fill="" p-id="5105"></path>
  <path d="M422.27497563 355.7104357m-15.71754437 0a15.71754439 15.71754439 0 1 0 31.43508878 0 15.71754439 15.71754439 0 1 0-31.43508878 0Z" fill="#FFFFFF" p-id="5106"></path>
  <path d="M618.39699661 383.6540827c0-0.52488192-15.89281565 6.9847461-20.43308599 7.50869618-4.5402715-0.69922019-20.43308715-8.03357696-20.43308715-7.50962803 0-0.34961067 13.27213682-0.17433941 20.43308715 0.17433829 7.16001735-0.34867769 20.60742542-0.34867769 20.43215415-0.17433829z" fill="#7F4A41" p-id="5107"></path>
  <path d="M496.32242382 380.16077725s-55.5367515 37.37286883-85.57433059 74.74573653c-30.03851207 37.37380067-29.51456313 44.35854677-29.51456313 44.3585479l21.30664673 9.43108553s30.56246101-57.80595598 68.63361709-79.81088996 42.78763179-40.1669541 42.78763291-40.1669541l-17.639003-8.55845774z" fill="#EFCCA3" p-id="5108"></path>
  <path d="M375.29575003 268.56518898s-18.51162965 51.51856526-60.77437952 73.34915981c0.17433941 0 65.315584-7.68489927 60.77437952-73.34915981zM815.74125603 268.56518898s18.51162965 51.51856526 60.77437953 73.34915981c0 0-65.315584-7.68489927-60.77437953-73.34915981zM695.41380245 365.1415212s-40.69183488-43.48592014-96.22765454-44.53381802v-0.17433941c-0.34961067 0 0.34867769 0 0 0-0.34961067 0 0 0 0 0v0.17433941c-54.13831111 1.04789789-96.40199395 44.53381803-96.40199395 44.53381802 48.02619165-33.70615581 92.9086885-32.83259733 96.40199395-32.65825792 0 0-0.17527125 0 0 0 0.17433941 0 0 0 0 0 5.06422045-0.34867769 48.20053106-1.04789789 96.22672156 32.65825792zM647.21233955 273.97902008s-20.43308715-29.51456313-48.20146289-30.21285148c-0.17433941 0 0.17527125 0 0 0-0.17433941 0 0 0 0 0-24.44940971 0.69828835-48.19959808 30.21285035-48.19959922 30.21285148 24.09979904-22.87849358 48.19959808-22.35454464 48.19959922-22.1792745 5.2394917-0.17527125 24.10073202-0.69922019 48.20146289 22.1792745zM406.38215999 488.78700899s-33.00693561 16.24149333-56.40937927 6.46173014h0.52394895 0.52395006c-24.44940971-12.04989952-32.133376-47.32790329-32.13337711-47.32790329s19.73386695 61.99754866 87.49579035 40.86617315zM789.37038882 488.78700899s33.00693561 16.24149333 56.40844631 6.46173014h-0.17433828 3.14369478c24.44940971-12.04989952 30.03851207-47.32790329 30.03851209-47.32790329s-21.65625629 61.99754866-89.41631489 40.86617315zM598.83746907 295.63434453s0.17340643 0 0 1e-8c-0.17527125 0 0 0 0 0z" fill="#CCAC8D" p-id="5109"></path>
  <path d="M444.27897777 264.72227285c18.33822208-3.84105131 48.02712349-4.5402715 71.77731299 3.84291613 30.21378333 10.47805155 5.93871303 48.89881941 12.0508325 50.99461518 6.11211947 2.09579691 14.32003584-26.54520661 70.55507457-23.92545962 56.23410802 2.61974585 63.04544768 27.5931045 70.7294151 23.92545962s-7.50962802-70.20546503 77.0168047-54.83753131c0 0-88.71709469-23.75112135-84.52643273 40.51749662 0 0-50.64593749-39.46959758-122.2489122-4.01725554 0.17527125 0 18.68690091-59.90175289-95.35409493-36.49930924zM753.91804565 264.8975441c1.04789789 0.17433941 2.09579691 0.52394894 3.14369593 0.6992202 0 0-1.04789789-0.35054251-3.14369592-0.6992202zM753.39316487 264.72227285c0.17527125 0 0.35054251 0 0.52488078 0.17527125-0.17433941-0.17527125-0.34961067-0.17527125-0.52394894-0.17527125zM420.0048393 179.14887411s-75.44588971 94.83014599-86.79656901 131.50472645-19.3861211 188.43712285-29.34022258 209.91810789l-35.2780049-149.14372837 64.44295624-155.7797979 86.97090842-36.49930807zM774.69981049 179.14887411s75.44495787 94.83014599 86.79656903 131.50472645c11.35254414 36.67458048 19.38518813 188.43712285 29.33929187 209.91810789l35.27800376-149.14372837-64.44202437-155.7797979-86.97184029-36.49930807z" fill="#CCAC8D" p-id="5110"></path>
  <path d="M771.03216675 179.14887411s81.03406023 67.76005859 104.43557093 146.00003243 13.79701874 173.24352739 32.13430782 185.46869815c25.84691826 17.11411997 55.18620899-82.78024647 64.96690631-93.60790868 15.19359431-16.591104 66.5378213-59.37780281 69.85678735-67.0617691 3.31710237-7.68489927-103.38860487-124.17036971-150.36689862-147.22320272-55.71015907-27.24349497-125.56694642-29.68890141-121.02574194-23.57585008z" fill="#56332B" p-id="5111"></path>
  <path d="M840.365004 220.88767502S936.06870962 343.13658724 934.32159153 495.24967097l38.24736028-78.23904198s-33.53181753-100.06963769-132.2039478-196.12202213z" fill="#442823" p-id="5112"></path>
  <path d="M420.0048393 179.14887411s-81.03406023 67.76005859-104.4355709 146.00003243-13.79701874 173.24352739-32.13430783 185.46869815c-25.84691826 17.11411997-55.18620899-82.78024647-64.96690633-93.60790868-15.19359431-16.591104-66.5378213-59.37780281-69.85678732-67.0617691-3.31710237-7.68489927 103.38860487-124.17036971 150.36689863-147.22320272 55.71015907-27.24349497 125.56694642-29.68890141 121.02574192-23.57585008z" fill="#56332B" p-id="5113"></path>
  <path d="M350.67200205 220.88767502S254.96829644 343.13658724 256.71541453 495.24967097l-38.24736029-78.23904198s33.53181753-100.06963769 132.20394781-196.12202213z" fill="#442823" p-id="5114"></path>
  <path d="M298.62948786 498.39243392s6.63606841 37.89774962 18.33635727 49.77237902 3.66764487-9.08054301 3.66764485-9.08054413-11.52595058-6.28739072-9.60542491-54.66319191c1.92052565-48.55014059-12.39951019 13.97135701-12.39951018 13.97135702zM895.20253647 498.39243392s-6.63606841 37.89774962-18.33729027 49.77237902-3.66764487-9.08054301-3.66764486-9.08054413 11.52688242-6.28739072 9.60542493-54.66319191 12.39951019 13.97135701 12.3995102 13.97135702z" fill="#CCAC8D" p-id="5115"></path>
  <path d="M642.32245737 787.77275407c5.41383111-2.79408526 9.43015367-7.85923869 10.65332282-14.14569643 1.92052565-10.82766222-5.2394917-21.13230734-16.06715392-23.05283299-9.95503559-1.74618624-19.38518813 4.19159381-22.35454464 13.62174749-13.09779854-3.84198315-26.71954489-6.11211947-40.34222536-7.16001736 0.52394894-9.77976434-6.28645774-18.68690091-16.24056035-20.60742657-10.82859406-1.92052565-21.13230734 5.2394917-23.05283299 16.06622208-1.22316914 6.46172899 0.87262663 12.57478144 5.06422044 16.93978169-5.41383111 2.7950171-9.43108551 7.85923869-10.65332281 14.14662826-1.92052565 10.82766222 5.2394917 21.1313755 16.06715392 23.05283301 9.77976434 1.74618624 19.03557859-4.0172544 22.17927339-12.92345914 13.27306979 3.66764487 26.89481614 6.11211947 40.51749661 7.16001851-0.17527125 9.60542493 6.63606841 18.16295083 16.24056035 19.90913706 10.82859406 1.92052565 21.13230734-5.2394917 23.052833-16.06715392 1.04789789-6.28645774-1.04789789-12.39951019-5.06422045-16.93978169z" fill="#FFB81E" p-id="5116"></path>
  <path d="M627.82715029 823.22509726c-1.2222373 0-2.61974585-0.17527125-3.84198314-0.34961068-9.95503559-1.74618624-17.28939122-10.12937387-17.98861254-20.08347648-12.57384846-1.22316914-25.14769806-3.49330546-37.37286772-6.63700026-4.01632256 9.08147598-13.79608576 14.32096768-23.75112134 12.57478032-11.87556011-2.09579691-19.73479879-13.44740807-17.63900189-25.32296818 1.04789789-5.93871303 4.5402715-11.17727289 9.60542492-14.32003584-3.66764487-4.89081401-5.06422045-10.82859406-4.01632256-16.76637525 1.04789789-5.76344178 4.19066197-10.65332281 9.08054301-14.14569644 4.71554275-3.31896605 10.65332281-4.5402715 16.24242517-3.49330545 10.12844203 1.74711922 17.63900189 10.47898453 17.98768071 20.6083584 12.57384846 1.04789789 24.97335865 3.31803421 37.02419 6.63606841 3.84105131-9.43108551 13.79608576-15.01925603 23.92546077-13.09873039 5.76344178 1.04883086 10.65332281 4.19159381 14.14569642 9.081476 3.31896605 4.71554275 4.5402715 10.65332281 3.66764375 16.24242516-1.04789789 5.93778005-4.5402715 11.17633991-9.60542494 14.32003584 3.66764487 4.88988217 5.06515342 10.82766222 4.01725555 16.76544228-1.04789789 5.76344178-4.19159381 10.65332281-9.08147598 14.14662941-3.66764487 2.44447459-7.85923869 3.84105131-12.39951019 3.8410513z m-61.64793914-31.95903774l1.74618738 0.52301711c13.09873038 3.66764487 26.54520661 5.93871303 40.16695296 7.16001735l1.92052567 0.17527124v1.92052567c-0.17340643 8.73279715 5.93871303 16.24242517 14.67057832 17.81427313 4.71554275 0.87262663 9.43108551-0.17527125 13.27306868-2.96935538s6.46079715-6.81133966 7.33435675-11.52595058c1.04789789-5.58910237-0.69828835-11.17820473-4.5402715-15.19452728l-1.92052564-1.92052565 2.44447571-1.2222373c5.06422045-2.61974585 8.5575259-7.16001735 9.6054238-12.74911972 0.87262663-4.71554275-0.17527125-9.43108551-2.96935538-13.27306979-2.79408526-3.84105131-6.81040782-6.46079715-11.52595056-7.33435678-8.73186531-1.57184797-17.46466247 3.66764487-20.08347649 12.22423895l-0.52395008 1.92145749-1.92145749-0.52394894c-12.92345913-3.66764487-26.3708672-6.11211947-39.81827527-7.16001735l-1.92052565-0.17527127 0.17433826-1.92052564c0.52394894-8.90713657-5.76344178-16.93978169-14.66964536-18.51162965-4.71554275-0.87355961-9.43108551 0.17433941-13.27306866 2.96842353-3.84198315 2.79408526-6.46079715 6.81133966-7.33528974 11.52595057-1.04696605 5.58910237 0.69922019 11.17820473 4.54027149 15.1945273l1.92145865 1.92052566-2.44447575 1.22223729c-5.06422045 2.61974585-8.5575259 7.16001735-9.60542378 12.74912085-1.74618624 9.60542493 4.71554275 18.86123918 14.32003471 20.60742543 8.55845888 1.57184797 16.94071353-3.31803421 19.91007004-11.70028886l0.52394893-1.74711921z" fill="#FF931E" p-id="5117"></path>
  <path d="M558.84392257 750.74856405m-7.50962803 0a7.50962802 7.50962802 0 1 0 15.01925604 0 7.50962802 7.50962802 0 1 0-15.01925604 0Z" fill="#FFCC66" p-id="5118"></path>
  <path d="M631.84347284 804.88780702m-7.50962801 0a7.50962802 7.50962802 0 1 0 15.01925604 0 7.50962802 7.50962802 0 1 0-15.01925604 0Z" fill="#FFCC66" p-id="5119"></path>
  <path d="M591.15256981 778.69127922m-4.54027151 0a4.5402715 4.5402715 0 1 0 9.08054415 0 4.5402715 4.5402715 0 1 0-9.08054415 0Z" fill="#FF931E" p-id="5120"></path>
  <path d="M555.35061709 773.27744811m-4.54027148 0a4.5402715 4.5402715 0 1 0 9.08054298 0 4.5402715 4.5402715 0 1 0-9.08054298 0Z" fill="#FF931E" p-id="5121"></path>
  <path d="M626.95359068 785.85129656m-4.5402715-1e-8a4.5402715 4.5402715 0 1 0 9.08054414 0 4.5402715 4.5402715 0 1 0-9.08054414 0Z" fill="#FF931E" p-id="5122"></path>
  <path d="M527.58317319 469.40182088m-5.41383111 0a5.41383111 5.41383111 0 1 0 10.8276622 0 5.41383111 5.41383111 0 1 0-10.8276622 0Z" fill="#442823" p-id="5123"></path>
  <path d="M495.44886534 503.4566555m-5.4138311 0a5.41383111 5.41383111 0 1 0 10.82766221 0 5.41383111 5.41383111 0 1 0-10.82766221 0Z" fill="#442823" p-id="5124"></path>
  <path d="M484.62120311 469.40182088m-5.41383108 0a5.41383111 5.41383111 0 1 0 10.82766221 0 5.41383111 5.41383111 0 1 0-10.82766221 0Z" fill="#442823" p-id="5125"></path>
  <path d="M663.45383289 469.40182088m-5.41383112 0a5.41383111 5.41383111 0 1 0 10.82766222 0 5.41383111 5.41383111 0 1 0-10.82766222 0Z" fill="#442823" p-id="5126"></path>
  <path d="M695.58814073 503.4566555m-5.41383112 0a5.41383111 5.41383111 0 1 0 10.82766223 0 5.41383111 5.41383111 0 1 0-10.82766223 0Z" fill="#442823" p-id="5127"></path>
  <path d="M706.41580295 469.40182088m-5.41383111 0a5.41383111 5.41383111 0 1 0 10.82766221 0 5.41383111 5.41383111 0 1 0-10.82766221 0Z" fill="#442823" p-id="5128"></path>
</svg>