<svg width="40" height="40" viewBox="0 0 40 40" fill="none" xmlns="http://www.w3.org/2000/svg">
<g clip-path="url(#clip0_81_75)">
<path d="M3.54476 22.6069C4.02029 22.1767 4.58876 21.7144 5.25876 21.2115C6.32705 20.408 7.25105 19.7287 8.05991 19.2393C8.2195 19.4765 8.38696 19.7082 8.562 19.9342C8.651 20.0492 8.7652 20.1423 8.8958 20.2062C9.02639 20.2702 9.16992 20.3033 9.31533 20.3031C9.52643 20.3033 9.73155 20.233 9.89819 20.1034C10.3139 19.7811 10.3897 19.1829 10.0674 18.7672C9.98872 18.6652 9.91172 18.5619 9.83648 18.4574C9.84467 18.4558 9.85314 18.4532 9.86133 18.4516C10.6023 18.3094 11.4719 18.4225 12.807 20.2014C14.1962 22.0503 14.1068 23.0121 13.3532 24.0137C13.9137 23.8677 14.3247 23.6214 14.797 23.3381C15.1024 23.1548 15.4233 22.9631 15.7939 22.7922C15.8451 21.6446 15.3591 20.4272 14.3301 19.0577C13.3714 17.7805 11.8277 16.1342 9.50181 16.5811C9.28181 16.6234 9.05971 16.6847 8.83495 16.7604C7.35048 13.566 7.99219 10.2463 10.6924 8.0391C11.0996 7.70625 11.1599 7.10625 10.827 6.69901C10.4941 6.29187 9.89419 6.23158 9.48695 6.56444C7.42057 8.25349 6.26857 10.472 6.15552 12.9801C6.08686 14.5042 6.4239 16.0803 7.12257 17.584C6.21752 18.1261 5.23476 18.8461 4.11457 19.6886C1.81857 21.4122 0.543429 22.7788 0 24.1268C0.933905 24.0351 1.46095 23.7207 2.09886 23.3381C2.52105 23.0847 2.97162 22.8146 3.54476 22.6069Z" fill="black"/>
<path d="M21.0598 14.1582C19.7246 12.3793 18.8551 12.2662 18.1141 12.4084C18.106 12.4099 18.0975 12.4125 18.0893 12.4142C18.1645 12.5188 18.2415 12.622 18.3202 12.724C18.6425 13.1397 18.5667 13.7379 18.151 14.0602C17.9843 14.1898 17.7792 14.2601 17.5681 14.2599C17.4227 14.2601 17.2792 14.227 17.1486 14.163C17.018 14.0991 16.9038 14.0061 16.8148 13.8911C16.6397 13.6651 16.4723 13.4333 16.3127 13.1961C15.5038 13.6855 14.5798 14.3648 13.5115 15.1683C12.8415 15.6712 12.2731 16.1335 11.7975 16.5637C12.3781 16.3533 13.0845 16.2068 14.0159 16.2068C15.867 16.2068 16.8305 16.7849 17.6805 17.2949C18.4409 17.7512 19.0415 18.1115 20.3651 18.1115C20.8666 18.1115 21.264 18.0596 21.6059 17.9705C22.3595 16.9689 22.449 16.0072 21.0598 14.1582Z" fill="#FFD5A1"/>
<path d="M23.6762 20.768C25.1524 20.768 26.5413 20.1919 27.5872 19.1461L27.5881 19.1451C28.63 18.1028 29.2044 16.7158 29.2054 15.2394C29.2064 13.7607 28.6314 12.3708 27.5866 11.3259C26.5434 10.2828 25.1546 9.70819 23.676 9.70819C22.1973 9.70819 20.8088 10.2824 19.7662 11.325L19.7653 11.326C18.7203 12.3714 18.1451 13.7607 18.1457 15.2378C18.1462 16.7143 18.7216 18.1025 19.7659 19.1468C20.8113 20.1923 22.2001 20.7681 23.6762 20.768ZM23.676 11.613C24.6458 11.613 25.5563 11.9893 26.2397 12.6729C26.9245 13.3575 27.3012 14.2687 27.3006 15.2381C27.3003 15.8796 27.1348 16.4953 26.8245 17.0366L21.8759 12.0878C22.4172 11.778 23.0334 11.613 23.676 11.613ZM20.529 13.4349L25.4776 18.3834C24.9296 18.6989 24.3082 18.8644 23.676 18.8633C22.7087 18.8634 21.7984 18.4857 21.1125 17.7999C20.4279 17.1153 20.0506 16.2051 20.0503 15.2372C20.0501 14.5946 20.217 13.9777 20.529 13.4349Z" fill="black"/>
<path d="M0.952381 26.0315C2.27581 26.0315 2.87648 26.3919 3.63686 26.8482C4.48686 27.3582 5.45029 27.9363 7.30133 27.9363C9.15238 27.9363 10.1157 27.3582 10.9657 26.8482C11.7261 26.3919 12.3268 26.0315 13.6501 26.0315C14.9735 26.0315 15.5743 26.3919 16.3347 26.8482C17.1847 27.3582 18.1482 27.9363 19.9992 27.9363C21.8504 27.9363 22.8138 27.3583 23.6639 26.8482C24.4244 26.3919 25.025 26.0315 26.3485 26.0315C27.6721 26.0315 28.2729 26.3919 29.0333 26.8482C29.8834 27.3582 30.8469 27.9363 32.698 27.9363C34.5491 27.9363 35.5127 27.3583 36.3627 26.8482C37.1231 26.3919 37.7239 26.0315 39.0475 26.0315C39.5735 26.0315 39.9999 25.6051 39.9999 25.0791C39.9999 24.5531 39.5735 24.1268 39.0475 24.1268C37.1963 24.1268 36.2329 24.7048 35.3827 25.2149C34.6222 25.6712 34.0215 26.0315 32.6979 26.0315C31.3743 26.0315 30.7736 25.6712 30.0131 25.2149C29.163 24.7048 28.1995 24.1268 26.3484 24.1268C25.1624 24.1268 24.3416 24.3644 23.6808 24.6691C23.3101 24.8399 22.9892 25.0316 22.6838 25.2149C22.2115 25.4983 21.8006 25.7445 21.2401 25.8905C20.8982 25.9796 20.5007 26.0315 19.9992 26.0315C18.6758 26.0315 18.0751 25.6712 17.3147 25.2149C16.4647 24.7049 15.5011 24.1268 13.6501 24.1268C12.7187 24.1268 12.0123 24.2732 11.4317 24.4837C10.8586 24.6914 10.408 24.9615 9.98571 25.2149C9.34781 25.5976 8.82076 25.912 7.88686 26.0036C7.69226 26.0225 7.49685 26.0318 7.30133 26.0315C5.9779 26.0315 5.37724 25.6712 4.61686 25.2149C3.76686 24.7049 2.80343 24.1268 0.952381 24.1268C0.426381 24.1268 0 24.5531 0 25.0791C0 25.6051 0.426381 26.0315 0.952381 26.0315ZM39.0476 29.8411C37.1964 29.8411 36.233 30.4191 35.3828 30.9292C34.6223 31.3854 34.0216 31.7458 32.698 31.7458C31.3744 31.7458 30.7737 31.3854 30.0132 30.9292C29.1631 30.4192 28.1996 29.8411 26.3485 29.8411C24.4974 29.8411 23.5339 30.4191 22.6839 30.9292C21.9234 31.3854 21.3228 31.7458 19.9992 31.7458C18.6758 31.7458 18.0751 31.3854 17.3147 30.9292C16.4647 30.4192 15.5011 29.8411 13.6501 29.8411C11.799 29.8411 10.8357 30.4192 9.98571 30.9292C9.22533 31.3854 8.62467 31.7458 7.30133 31.7458C5.9779 31.7458 5.37724 31.3854 4.61686 30.9292C3.76686 30.4192 2.80343 29.8411 0.952381 29.8411C0.426381 29.8411 0 30.2675 0 30.7934C0 31.3193 0.426381 31.7458 0.952381 31.7458C2.27581 31.7458 2.87648 32.1062 3.63686 32.5625C4.48686 33.0725 5.45029 33.6506 7.30133 33.6506C9.15238 33.6506 10.1157 33.0725 10.9657 32.5625C11.7261 32.1062 12.3268 31.7458 13.6501 31.7458C14.9735 31.7458 15.5743 32.1062 16.3347 32.5625C17.1847 33.0725 18.1482 33.6506 19.9992 33.6506C21.8504 33.6506 22.8138 33.0726 23.6639 32.5625C24.4244 32.1062 25.025 31.7458 26.3485 31.7458C27.6721 31.7458 28.2729 32.1062 29.0333 32.5625C29.8834 33.0725 30.8469 33.6506 32.698 33.6506C34.5491 33.6506 35.5127 33.0726 36.3627 32.5625C37.1231 32.1062 37.7239 31.7458 39.0475 31.7458C39.5735 31.7458 39.9999 31.3193 39.9999 30.7934C40 30.2675 39.5736 29.8411 39.0476 29.8411Z" fill="#6ECCAE"/>
<path d="M26.8999 13.0478C27.5322 13.0485 28.1536 12.9402 28.7015 12.7337L23.753 9.49445C23.441 9.84985 23.274 10.2536 23.2743 10.6742C23.2746 11.3078 23.6519 11.9035 24.3366 12.3517C25.0223 12.8006 25.9327 13.0479 26.8999 13.0478Z" fill="#FFD5A1"/>
<path d="M30.5245 10.6749C30.5251 10.0403 30.1483 9.44396 29.4635 8.99579C28.7801 8.54837 27.8696 8.302 26.8998 8.302C26.2574 8.302 25.6411 8.40998 25.0997 8.61283L30.0484 11.8522C30.3586 11.4979 30.524 11.0949 30.5245 10.6749Z" fill="#6ECCAE"/>
</g>
<defs>
<clipPath id="clip0_81_75">
<rect width="39.9999" height="40" fill="white"/>
</clipPath>
</defs>
</svg>
